<?xml version="1.0" encoding="UTF-8"?>
<svg width="371px" height="285px" viewBox="0 0 371 285" version="1.1" xmlns="http://www.w3.org/2000/svg" xmlns:xlink="http://www.w3.org/1999/xlink">
    <!-- Generator: Sketch 43.2 (39069) - http://www.bohemiancoding.com/sketch -->
    <title>MachineCopy_BBD_Logo_pnt_clr (2)</title>
    <desc>Created with Sketch.</desc>
    <defs>
        <polygon id="path-1" points="0.107019231 186.99783 0.107019231 0.546886792 370.657538 0.546886792 370.657538 186.99783 0.107019231 186.99783"></polygon>
        <polygon id="path-3" points="0.0303985205 0.103962264 44.6262121 0.103962264 44.6262121 55.7589461 0.0303985205 55.7589461 0.0303985205 0.103962264"></polygon>
    </defs>
    <g id="Page-1" stroke="none" stroke-width="1" fill="none" fill-rule="evenodd">
        <g id="MachineCopy_BBD_Logo_pnt_clr-(2)">
            <g id="Group-3" transform="translate(0.000000, 26.094340)">
                <mask id="mask-2" fill="white">
                    <use xlink:href="#path-1"></use>
                </mask>
                <g id="Clip-2"></g>
                <path d="M325.290303,32.4830189 C324.191572,32.3736792 323.050034,32.1693396 321.865687,31.8090566 L313.193562,32.115566 C313.229236,32.1316981 313.263125,32.1478302 313.298798,32.1639623 C346.836841,48.7871698 365.306577,70.6676415 365.306577,93.7723585 C365.306577,116.878868 346.836841,138.75934 313.298798,155.380755 C279.161447,172.301509 233.713947,181.620472 185.328769,181.620472 C86.0880529,181.620472 5.35096154,142.211604 5.35096154,93.7723585 C5.35096154,45.3331132 86.0880529,5.92424528 185.328769,5.92424528 C221.611856,5.92424528 256.243279,11.1635849 285.68962,20.9199057 C287.10049,19.3909434 288.52563,17.9874528 289.950769,16.7183962 C259.391428,6.21820755 223.234981,0.546886792 185.328769,0.546886792 C136.13738,0.546886792 89.8479952,10.0630189 54.9900481,27.3404717 C19.529226,44.9190566 0,68.5113208 0,93.7723585 C0,119.035189 19.529226,142.627453 54.9900481,160.204245 C89.8479952,177.483491 136.13738,186.99783 185.328769,186.99783 C234.518375,186.99783 280.805976,177.483491 315.66749,160.204245 C351.128312,142.627453 370.657538,119.035189 370.657538,93.7723585 C370.657538,70.8988679 354.643894,49.3930189 325.290303,32.4830189" id="Fill-1" fill="#1A1918" mask="url(#mask-2)"></path>
            </g>
            <path d="M170.465582,146.106415 C169.491707,151.392358 169.022606,154.224434 169.067197,154.606226 C169.616562,157.121038 172.55424,158.377547 177.880231,158.377547 C185.310933,158.377547 191.469889,156.140566 196.35175,151.663019 C201.231827,147.181887 203.670082,141.537453 203.670082,134.711792 C203.670082,128.956226 201.576072,124.417736 197.386269,121.092736 C193.19825,117.767736 187.463803,116.10434 180.186495,116.10434 L176.758312,116.10434 L170.465582,146.106415" id="Fill-4" fill="#0A0A08"></path>
            <path d="M248.60924,153.951981 C249.201413,157.140755 252.984543,158.734245 259.956846,158.734245 C274.493625,158.734245 286.255038,153.455472 295.246437,142.892547 C304.237837,132.333208 308.730861,118.533113 308.730861,101.497642 C308.730861,90.8522642 305.975115,83.4028302 300.461841,79.1421698 C294.950351,74.8833019 285.268678,72.7520755 271.434659,72.7520755 L264.278639,72.7520755 L249.690135,146.488208 C248.885707,151.076887 248.521841,153.566604 248.60924,153.951981" id="Fill-5" fill="#0A0A08"></path>
            <path d="M177.553822,113.471039 C177.553822,113.471039 177.935524,113.506721 178.570505,113.564705 C179.774471,112.946955 180.946332,112.293522 182.08787,111.608868 C180.650245,111.678002 179.226889,111.718145 177.828505,111.713685 L177.553822,113.471039" id="Fill-6" fill="#0A0A08"></path>
            <path d="M97.897625,116.10434 L91.6048942,146.106415 C90.6310192,151.392358 90.1637019,154.224434 90.2065096,154.606226 C90.755875,157.121038 93.6953365,158.377547 99.0213269,158.377547 C106.453812,158.377547 112.612769,156.140566 117.492846,151.663019 C122.371139,147.181887 124.811178,141.537453 124.811178,134.711792 C124.811178,128.956226 122.715385,124.417736 118.529149,121.092736 C114.339346,117.767736 108.606683,116.10434 101.325808,116.10434 L97.897625,116.10434" id="Fill-7" fill="#0A0A08"></path>
            <path d="M21.9728317,117.178019 C21.9728317,160.567925 95.109774,195.744811 185.328769,195.744811 C275.549548,195.744811 348.682923,160.567925 348.682923,117.178019 C348.682923,93.7291509 327.316534,72.6839623 293.444947,58.2869811 C288.50601,58.6741509 284.867356,60.1099057 282.593197,61.3251887 C282.059885,61.6101887 280.030087,62.8039623 280.030087,62.8039623 L271.769986,68.4215094 L283.86851,68.2637736 L286.278226,68.2637736 C298.335726,68.2637736 307.382418,71.0223585 313.412952,76.5395283 C319.439918,82.0566981 322.457861,90.3342453 322.457861,101.366792 C322.457861,119.216038 317.081928,133.958962 306.328279,145.588396 C295.576413,157.21783 281.945731,163.032547 265.436231,163.032547 L221.367495,163.032547 L222.127332,159.094528 L223.334865,159.028208 C228.630534,158.689434 231.839327,157.963491 232.961245,156.857547 C234.086731,155.748019 235.242538,152.295755 236.426885,146.498962 L248.247159,86.7726415 C238.092817,96.5182075 221.478082,104.919434 201.97026,109.081509 C197.061644,110.128302 192.240428,110.841698 187.569038,111.257547 C184.975606,112.083868 182.207375,112.743491 179.287534,113.234623 C183.768072,113.571604 195.372524,114.455283 194.942663,114.561038 C197.386269,115.048585 199.624755,115.647264 201.667038,116.357075 C205.903216,117.828679 209.281457,119.777075 211.798192,122.207642 C215.527812,125.808679 217.395298,130.443962 217.395298,136.111698 C217.395298,144.174151 214.295308,150.671792 208.09176,155.618962 C201.886428,160.56434 193.699457,163.032547 183.541548,163.032547 L142.506808,163.032547 L143.270212,159.094528 L144.477745,159.028208 C149.769846,158.689434 152.980423,157.963491 154.100558,156.853962 C155.226043,155.748019 156.378284,152.285 157.566197,146.481038 L164.641952,110.707264 C153.531572,108.991887 144.627572,105.089717 139.474596,99.4363208 C138.511423,100.89717 137.387721,102.313208 136.078519,103.675472 C131.116394,108.850283 124.45088,112.476415 116.085543,114.561038 C123.587591,116.057736 129.206101,118.603019 132.939288,122.207642 C136.670692,125.808679 138.538178,130.443962 138.538178,136.111698 C138.538178,144.174151 135.43462,150.671792 129.231072,155.618962 C123.02574,160.56434 114.842337,163.032547 104.682644,163.032547 L63.6496875,163.032547 L64.4113077,159.094528 L65.6188413,159.028208 C70.9109423,158.689434 74.1197356,157.963491 75.2434375,156.853962 C76.3635721,155.748019 77.5211635,152.285 78.7090769,146.481038 L90.8646779,85.0070755 C91.5424663,81.4813208 91.8831442,78.4449057 91.8831442,75.8960377 C91.8831442,74.5373585 91.4889567,73.7074528 90.7059327,73.4134906 C89.921125,73.1177358 87.2866683,72.8183962 82.7972115,72.524434 L81.5861106,72.3935849 L82.4155096,68.4537736 L112.275659,68.4537736 C123.30399,68.4537736 131.271572,69.825 136.173053,72.5746226 C137.195087,73.1446226 138.081562,73.8096226 138.891341,74.5319811 C142.587072,68.8911321 148.501668,63.440283 156.071495,58.6669811 C147.1015,66.329717 142.273149,75.0213208 143.59662,83.1536792 C145.061,92.1284906 153.722423,98.6476415 166.397067,101.836415 L169.725365,85.0070755 C170.40137,81.4813208 170.740264,78.4449057 170.740264,75.8960377 C170.740264,74.5373585 170.347861,73.7074528 169.564837,73.4134906 C168.780029,73.1177358 166.145572,72.8183962 161.654332,72.524434 L160.448582,72.3935849 L161.274413,68.4537736 L186.176005,68.4537736 L185.478596,72.7520755 L185.348389,72.7520755 L179.346394,103.82783 C184.117668,104.155849 189.199298,104.111038 194.489615,103.666509 C203.391832,96.1149057 208.020413,86.7332075 205.990615,77.7816981 C204.189125,69.8518868 197.511125,63.7539623 188.132673,60.2389623 C201.75087,62.3253774 212.021149,68.6437736 213.947495,77.9107547 C215.702611,86.3693396 211.964072,95.5036792 203.798505,102.496038 C205.592861,102.196698 207.405053,101.861509 209.226163,101.472547 C210.965226,101.101509 212.672183,100.68566 214.361303,100.248302 C220.420375,92.9243396 223.680894,82.7270755 222.742692,74.9675472 C220.30087,54.7146226 197.675221,47.0554717 172.973399,50.7264151 C165.785274,51.7929245 158.964582,55.3079245 153.190894,58.4232075 C160.387937,52.6156604 169.939404,48.3496226 180.685918,46.7543396 C205.391308,43.0833962 227.052,54.8849057 229.07288,73.110566 C230.135937,82.6661321 225.571567,92.0765094 217.44524,99.4076415 C229.738183,95.8783019 240.502534,90.6586792 248.66275,84.6163208 C249.281678,81.2716038 249.599168,78.3642453 249.599168,75.9157547 C249.599168,74.5463208 249.208548,73.7164151 248.425524,73.4170755 C247.637149,73.1213208 245.004476,72.8219811 240.513236,72.524434 L239.305702,72.3935849 L240.12975,68.4537736 L267.731793,68.4537736 C270.205721,65.7812264 275.922332,58.975283 275.922332,58.975283 L276.232687,58.5361321 L278.349885,56.0822642 L280.502755,53.3200943 C253.703356,44.0656604 220.841317,38.6112264 185.328769,38.6112264 C95.109774,38.6112264 21.9728317,73.7863208 21.9728317,117.178019" id="Fill-8" fill="#0A0A08"></path>
            <path d="M125.52999,75.9426415 C122.324764,73.8167925 116.840029,72.7520755 109.081135,72.7520755 L106.487702,72.7520755 L98.6949183,111.802453 L102.11775,111.802453 C110.868356,111.802453 117.758611,109.579811 122.788514,105.136321 C127.820202,100.691038 130.336937,94.5966981 130.336937,86.849717 C130.336937,81.7107547 128.733433,78.0720755 125.52999,75.9426415" id="Fill-9" fill="#0A0A08"></path>
            <path d="M284.494572,52.9275472 C282.965981,54.9046226 281.667481,56.6038679 280.615125,57.9159434 C274.898514,65.0373585 279.527096,56.2274528 293.689308,55.3240566 C298.920764,54.9888679 304.303832,55.4154717 308.704106,55.4441509 C310.323663,55.4549057 311.8255,55.4172642 313.16324,55.29 C308.821827,52.574434 306.825918,49.6186792 307.443062,46.4424528 C308.20825,42.4883019 311.486606,38.9733019 313.412952,36.2451887 C311.818365,35.1733019 310.828437,35.245 309.296279,35.3848113 C305.593413,35.7164151 294.354611,40.2118868 284.494572,52.9275472" id="Fill-10" fill="#0A0A08"></path>
            <g id="Group-15" transform="translate(298.870192, 0.000000)">
                <mask id="mask-4" fill="white">
                    <use xlink:href="#path-3"></use>
                </mask>
                <g id="Clip-12"></g>
                <path d="M36.1802644,50.8680189 C39.0127067,52.1191509 41.6007885,52.2750943 43.2078606,52.0349057 C43.9730481,51.9201887 44.4849567,51.68 44.5830577,51.2085849 C44.8862788,49.740566 43.566375,46.0606604 41.4170721,42.4542453 C41.1388221,41.9864151 40.8516538,41.5598113 40.5430817,41.174434 C38.465125,38.6058491 33.6510433,37.2041509 30.3173942,40.9718868 C29.0224615,42.4309434 29.6734952,44.784434 30.9309712,46.6396226 C32.1741779,48.469717 34.1040913,49.9520755 36.1802644,50.8680189" id="Fill-11" fill="#0A0A08" mask="url(#mask-4)"></path>
                <path d="M24.0710385,29.4750943 C25.5907115,26.6466038 26.9944471,22.7964151 27.9701058,18.4353774 C30.076601,9.00528302 29.380976,0.815566038 26.4201106,0.146981132 C24.0442837,-0.387169811 20.935375,4.06528302 18.709375,10.6991509 C20.2593702,13.4864151 21.7130481,17.2559434 22.7618365,21.5273585 C23.4485433,24.3433019 23.8766202,27.0427358 24.0710385,29.4750943" id="Fill-13" fill="#0A0A08" mask="url(#mask-4)"></path>
                <path d="M19.7974038,37.8386792 C19.260524,37.770566 18.8110433,37.8870755 18.4382596,38.2061321 C17.9745096,38.6022642 17.6195625,39.2314151 17.2539135,39.9501887 C16.2300962,41.9487736 14.5891346,44.479717 14.7282596,47.2741509 C14.8352788,49.5165094 16.6760096,51.6656604 19.8937212,53.4348113 C22.1268558,54.664434 24.9254087,55.6610377 27.3886346,55.7524528 C28.9457644,55.8116038 30.1604327,55.4638679 30.993399,54.8221698 C31.4321779,54.4816038 31.7942596,54.0783019 32.0100817,53.5853774 C29.3453029,52.3181132 27.097899,50.2621698 25.6460048,47.9642453 C23.6607981,44.8292453 23.2113173,41.8071698 23.3397404,39.7422642 C22.9562548,39.4483019 22.6013077,39.1991509 22.2606298,38.969717 C22.3159231,38.874717 22.3747837,38.779717 22.4158077,38.6327358 C23.3076346,35.4708491 21.1476298,26.7487736 19.2676587,20.7709434 C12.4701538,-0.822735849 3.89077885,4.97943396 2.39964423,6.11584906 C-0.147413462,8.06603774 -3.60591827,18.259717 9.91061058,27.8941509 C14.0843606,30.8678302 17.5535673,35.5066981 19.7974038,37.8386792" id="Fill-14" fill="#0A0A08" mask="url(#mask-4)"></path>
            </g>
            <path d="M122.788514,105.136321 C117.758611,109.579811 110.868356,111.802453 102.11775,111.802453 L98.6949183,111.802453 L106.487702,72.7520755 L109.081135,72.7520755 C116.840029,72.7520755 122.324764,73.8167925 125.52999,75.9426415 C128.733433,78.0720755 130.336937,81.7107547 130.336937,86.849717 C130.336937,94.5966981 127.820202,100.691038 122.788514,105.136321 Z M118.529149,121.092736 C122.715385,124.417736 124.811178,128.956226 124.811178,134.711792 C124.811178,141.537453 122.371139,147.181887 117.492846,151.663019 C112.612769,156.140566 106.453812,158.377547 99.0213269,158.377547 C93.6953365,158.377547 90.755875,157.121038 90.2065096,154.606226 C90.1637019,154.224434 90.6310192,151.392358 91.6048942,146.106415 L97.897625,116.10434 L101.325808,116.10434 C108.606683,116.10434 114.339346,117.767736 118.529149,121.092736 Z M138.891341,74.5319811 C138.081562,73.8096226 137.195087,73.1446226 136.173053,72.5746226 C131.271572,69.825 123.30399,68.4537736 112.275659,68.4537736 L82.4155096,68.4537736 L81.5861106,72.3935849 L82.7972115,72.524434 C87.2866683,72.8183962 89.921125,73.1177358 90.7059327,73.4134906 C91.4889567,73.7074528 91.8831442,74.5373585 91.8831442,75.8960377 C91.8831442,78.4449057 91.5424663,81.4813208 90.8646779,85.0070755 L78.7090769,146.481038 C77.5211635,152.285 76.3635721,155.748019 75.2434375,156.853962 C74.1197356,157.963491 70.9109423,158.689434 65.6188413,159.028208 L64.4113077,159.094528 L63.6496875,163.032547 L104.682644,163.032547 C114.842337,163.032547 123.02574,160.56434 129.231072,155.618962 C135.43462,150.671792 138.538178,144.174151 138.538178,136.111698 C138.538178,130.443962 136.670692,125.808679 132.939288,122.207642 C129.206101,118.603019 123.587591,116.057736 116.085543,114.561038 C124.45088,112.476415 131.116394,108.850283 136.078519,103.675472 C137.387721,102.313208 138.511423,100.89717 139.474596,99.4363208 C142.167913,95.3477358 143.527058,90.8791509 143.527058,86.0180189 C143.527058,81.0941509 141.962793,77.2780189 138.891341,74.5319811 L138.891341,74.5319811 Z" id="Fill-16" fill="#F1E11F"></path>
            <path d="M271.434659,72.7520755 C285.268678,72.7520755 294.950351,74.8833019 300.461841,79.1421698 C305.975115,83.4028302 308.730861,90.8522642 308.730861,101.497642 C308.730861,118.533113 304.237837,132.333208 295.246437,142.892547 C286.255038,153.455472 274.493625,158.734245 259.956846,158.734245 C252.984543,158.734245 249.201413,157.140755 248.60924,153.951981 C248.521841,153.566604 248.885707,151.076887 249.690135,146.488208 L264.278639,72.7520755 L271.434659,72.7520755 Z M239.305702,72.3935849 L240.513236,72.524434 C245.004476,72.8219811 247.637149,73.1213208 248.425524,73.4170755 C249.208548,73.7164151 249.599168,74.5463208 249.599168,75.9157547 C249.599168,78.3642453 249.281678,81.2716038 248.66275,84.6163208 C248.634212,84.7722642 248.612808,84.9156604 248.586053,85.0733962 L248.247159,86.7726415 L236.426885,146.498962 C235.242538,152.295755 234.086731,155.748019 232.961245,156.857547 C231.839327,157.963491 228.630534,158.689434 223.334865,159.028208 L222.127332,159.094528 L221.367495,163.032547 L265.436231,163.032547 C281.945731,163.032547 295.576413,157.21783 306.328279,145.588396 C317.081928,133.958962 322.457861,119.216038 322.457861,101.366792 C322.457861,90.3342453 319.439918,82.0566981 313.412952,76.5395283 C307.382418,71.0223585 298.335726,68.2637736 286.278226,68.2637736 L283.86851,68.2637736 L271.769986,68.4215094 L269.263952,68.4537736 L240.12975,68.4537736 L239.305702,72.3935849 L239.305702,72.3935849 Z" id="Fill-17" fill="#F1E11F"></path>
            <path d="M207.610173,106.306792 C211.279149,104.326132 214.577125,101.994151 217.44524,99.4076415 C225.571567,92.0765094 230.135937,82.6661321 229.07288,73.110566 C227.052,54.8849057 205.391308,43.0833962 180.685918,46.7543396 C169.939404,48.3496226 160.387937,52.6156604 153.190894,58.4232075 C158.964582,55.3079245 165.785274,51.7929245 172.973399,50.7264151 C197.675221,47.0554717 220.30087,54.7146226 222.742692,74.9675472 C223.680894,82.7270755 220.420375,92.9243396 214.361303,100.248302 C212.390365,102.632264 210.125125,104.715094 207.610173,106.306792" id="Fill-18" fill="#F1E11F"></path>
            <path d="M197.386269,121.092736 C201.576072,124.417736 203.670082,128.956226 203.670082,134.711792 C203.670082,141.537453 201.231827,147.181887 196.35175,151.663019 C191.469889,156.140566 185.310933,158.377547 177.880231,158.377547 C172.55424,158.377547 169.616562,157.121038 169.067197,154.606226 C169.022606,154.224434 169.491707,151.392358 170.465582,146.106415 L176.758312,116.10434 L180.186495,116.10434 C187.463803,116.10434 193.19825,117.767736 197.386269,121.092736 Z M213.947495,77.9107547 C212.021149,68.6437736 201.75087,62.3253774 188.132673,60.2389623 C197.511125,63.7539623 204.189125,69.8518868 205.990615,77.7816981 C208.020413,86.7332075 203.391832,96.1149057 194.489615,103.666509 C190.974034,106.647358 186.800284,109.341415 182.08787,111.608868 C180.946332,112.159151 179.774471,112.68434 178.570505,113.180849 C177.935524,113.134245 177.553822,113.105566 177.553822,113.105566 L177.828505,111.693113 L185.348389,72.7520755 L185.478596,72.7520755 L186.176005,68.4537736 L161.274413,68.4537736 L160.448582,72.3935849 L161.654332,72.524434 C166.145572,72.8183962 168.780029,73.1177358 169.564837,73.4134906 C170.347861,73.7074528 170.740264,74.5373585 170.740264,75.8960377 C170.740264,78.4449057 170.40137,81.4813208 169.725365,85.0070755 L157.566197,146.481038 C156.378284,152.285 155.226043,155.748019 154.100558,156.853962 C152.980423,157.963491 149.769846,158.689434 144.477745,159.028208 L143.270212,159.094528 L142.506808,163.032547 L183.541548,163.032547 C193.699457,163.032547 201.886428,160.56434 208.09176,155.618962 C214.295308,150.671792 217.395298,144.174151 217.395298,136.111698 C217.395298,130.443962 215.527813,125.808679 211.798192,122.207642 C209.281457,119.777075 205.903216,117.828679 201.667038,116.357075 C199.624755,115.647264 197.386269,115.048585 194.942663,114.561038 C195.372524,114.455283 183.768072,113.571604 179.287534,113.234623 C182.207375,112.743491 184.975606,112.083868 187.569038,111.257547 C194.079375,109.178302 199.546274,106.136509 203.798505,102.496038 C211.964072,95.5036792 215.702611,86.3693396 213.947495,77.9107547 L213.947495,77.9107547 Z" id="Fill-19" fill="#F1E11F"></path>
            <path d="M13.8625577,253.626698 C15.9654856,253.626698 17.6617404,253.042358 18.9477548,251.875472 C20.2355529,250.708585 20.8794519,249.08283 20.8794519,247.001792 C20.8794519,245.424434 20.3925144,244.313113 19.4204231,243.666038 C18.4465481,243.018962 17.0963221,242.694528 15.3697452,242.694528 C14.8364327,242.694528 14.3031202,242.712453 13.7698077,242.742925 C13.2347115,242.775189 12.7959327,242.821792 12.4499038,242.884528 L10.5663654,253.626698 L13.8625577,253.626698 Z M7.74105769,269.762358 C8.11919231,269.826887 8.57402404,269.873491 9.10733654,269.905755 C9.64064904,269.936226 10.2060673,269.952358 10.8018077,269.952358 C11.8381106,269.952358 12.897601,269.850189 13.9802788,269.644057 C15.0629567,269.439717 16.0528846,269.068679 16.9464952,268.532736 C17.8418894,267.996792 18.5714038,267.254717 19.1368221,266.308302 C19.7022404,265.361887 19.9840577,264.148396 19.9840577,262.664245 C19.9840577,261.71783 19.8270962,260.921981 19.5131731,260.274906 C19.19925,259.629623 18.7604712,259.108019 18.1950529,258.713679 C17.6296346,258.31934 16.9554135,258.03434 16.1706058,257.862264 C15.3857981,257.688396 14.5225096,257.600566 13.5807404,257.600566 L9.90819712,257.600566 L7.74105769,269.762358 Z M8.26010096,239.430472 C9.043125,239.305 10.104399,239.186698 11.4385721,239.075566 C12.7727452,238.964434 14.0195192,238.91066 15.1824615,238.91066 C16.782399,238.91066 18.2342933,239.045094 19.5381442,239.31217 C20.8402115,239.581038 21.9549952,240.014811 22.8807115,240.613491 C23.8064279,241.21217 24.5288077,241.970377 25.0460673,242.884528 C25.5633269,243.800472 25.8237404,244.918962 25.8237404,246.243585 C25.8237404,247.412264 25.6364567,248.500283 25.2583221,249.509434 C24.8819712,250.520377 24.3789808,251.411226 23.7511346,252.183774 C23.1232885,252.956321 22.4098269,253.603396 21.6089663,254.123208 C20.8081058,254.643019 19.9840577,255.014057 19.1368221,255.234528 C20.8330769,255.519528 22.2278942,256.292075 23.3284087,257.553962 C24.4271394,258.815849 24.9765048,260.425472 24.9765048,262.381038 C24.9765048,264.462075 24.5751827,266.245566 23.7761058,267.727925 C22.9752452,269.212075 21.883649,270.418396 20.503101,271.348679 C19.1207692,272.278962 17.5119135,272.956509 15.6765337,273.383113 C13.8393702,273.809717 11.8862692,274.021226 9.81366346,274.021226 C8.62039904,274.021226 7.37184135,273.96566 6.06977404,273.856321 C4.76592308,273.745189 3.51914904,273.610755 2.32588462,273.453019 L8.26010096,239.430472 L8.26010096,239.430472 Z" id="Fill-20" fill="#0A0A08"></path>
            <path d="M36.9359038,259.825 C38.537625,259.541792 39.8628798,259.219151 40.9152356,258.855283 C41.9675913,258.493208 42.8076923,258.098868 43.4355385,257.672264 C44.0633846,257.24566 44.5021635,256.797547 44.7536587,256.32434 C45.0033702,255.851132 45.1300096,255.329528 45.1300096,254.761321 C45.1300096,254.03717 44.8785144,253.44566 44.375524,252.988585 C43.8743173,252.531509 43.1519375,252.302075 42.2101683,252.302075 C41.2059712,252.302075 40.2802548,252.531509 39.4312356,252.988585 C38.584,253.44566 37.8241635,254.04434 37.1481587,254.784623 C36.4739375,255.528491 35.899601,256.379906 35.4305,257.34066 C34.9596154,258.303208 34.5975337,259.289057 34.3460385,260.298208 L36.9359038,259.825 Z M33.9696875,263.80066 C34.0642212,265.913962 34.5975337,267.507453 35.5714087,268.57934 C36.5435,269.653019 38.0506875,270.188962 40.0911875,270.188962 C41.3468798,270.188962 42.5401442,270.040189 43.6691971,269.739057 C44.8000337,269.439717 45.8202837,269.117075 46.7317308,268.76934 C47.0135481,269.242547 47.2168846,269.810755 47.343524,270.47217 C47.4683798,271.135377 47.5308077,271.798585 47.5308077,272.46 C47.0599231,272.680472 46.4873702,272.886604 45.813149,273.074811 C45.1371442,273.264811 44.4308173,273.429717 43.6941683,273.571321 C42.9557356,273.714717 42.2101683,273.824057 41.4574663,273.902925 C40.7029808,273.981792 40.0127067,274.021226 39.3848606,274.021226 C37.5316442,274.021226 35.9709471,273.777453 34.7009856,273.288113 C33.4292404,272.798774 32.3929375,272.121226 31.5920769,271.253679 C30.7912163,270.386132 30.2115288,269.360849 29.8494471,268.17783 C29.489149,266.994811 29.309,265.709623 29.309,264.320472 C29.309,262.39717 29.6300577,260.495377 30.2739567,258.618679 C30.9160721,256.741981 31.8435721,255.062453 33.0511058,253.580094 C34.2586394,252.095943 35.7051827,250.898585 37.383601,249.982642 C39.0620192,249.068491 40.9384231,248.611415 43.0110288,248.611415 C45.081851,248.611415 46.7228125,249.124057 47.9321298,250.14934 C49.1396635,251.174623 49.7443221,252.538679 49.7443221,254.241509 C49.7443221,255.63066 49.4072115,256.836981 48.7329904,257.862264 C48.0569856,258.887547 47.122351,259.762264 45.9308702,260.488208 C44.7358221,261.214151 43.3320865,261.81283 41.7160962,262.286038 C40.0983221,262.759245 38.3325048,263.137453 36.4186442,263.422453 L33.9696875,263.80066 L33.9696875,263.80066 Z" id="Fill-21" fill="#0A0A08"></path>
            <path d="M55.3485625,259.400189 C55.6928077,257.507358 55.9674904,255.881604 56.1726106,254.524717 C56.3759471,253.169623 56.4776154,251.986604 56.4776154,250.97566 C56.4776154,250.566981 56.4704808,250.242547 56.4544279,250.005943 C56.438375,249.76934 56.3991346,249.478962 56.3367067,249.131226 C56.6809519,249.068491 57.0590865,249.021887 57.4675433,248.989623 C57.8742163,248.957358 58.2505673,248.941226 58.5965962,248.941226 C58.9105192,248.941226 59.2636827,248.957358 59.6560865,248.989623 C60.0484904,249.021887 60.4016538,249.068491 60.7155769,249.131226 C60.7780048,249.383962 60.8261635,249.67434 60.8564856,250.005943 C60.8885913,250.337547 60.9046442,250.771321 60.9046442,251.309057 C60.9046442,251.907736 60.8636202,252.474151 60.7869231,253.011887 C60.7084423,253.54783 60.6210433,254.069434 60.5282933,254.573113 C60.8404327,253.909906 61.2809952,253.223396 61.8464135,252.513585 C62.4118317,251.803774 63.07,251.16566 63.8244856,250.599245 C64.5771875,250.031038 65.4172885,249.556038 66.3430048,249.179623 C67.2687212,248.799623 68.2497308,248.611415 69.2860337,248.611415 C71.1695721,248.611415 72.6375192,249.115094 73.689875,250.124245 C74.7404471,251.135189 75.266625,252.696415 75.266625,254.809717 C75.266625,255.282925 75.2345192,255.811698 75.1720913,256.394245 C75.1078798,256.978585 75.0311827,257.539623 74.936649,258.073774 L72.25225,273.453019 C71.875899,273.517547 71.4674423,273.564151 71.0286635,273.596415 C70.588101,273.626887 70.1956971,273.643019 69.8514519,273.643019 C69.5054231,273.643019 69.1201538,273.626887 68.6974279,273.596415 C68.2729183,273.564151 67.9037019,273.517547 67.5915625,273.453019 L70.1332692,258.878585 C70.2278029,258.374906 70.299149,257.885566 70.345524,257.412358 C70.391899,256.939151 70.4168702,256.530472 70.4168702,256.180943 C70.4168702,254.920849 70.124351,254.021038 69.5446635,253.485094 C68.9631923,252.949151 68.1873029,252.680283 67.2134279,252.680283 C66.3661923,252.680283 65.5350096,252.940189 64.7180962,253.461792 C63.9011827,253.981604 63.1324279,254.746981 62.4118317,255.756132 C61.6876683,256.765283 61.0366346,258.011038 60.4569471,259.493396 C59.875476,260.977547 59.4135096,262.680377 59.0674808,264.603679 L57.5139183,273.453019 C57.1375673,273.517547 56.7291106,273.564151 56.2903317,273.596415 C55.8497692,273.626887 55.4573654,273.643019 55.1113365,273.643019 C54.7670913,273.643019 54.3818221,273.626887 53.9590962,273.596415 C53.5345865,273.564151 53.1653702,273.517547 52.8514471,273.453019 L55.3485625,259.400189" id="Fill-22" fill="#0A0A08"></path>
            <path d="M87.4614663,259.825 C89.0631875,259.541792 90.3884423,259.219151 91.4407981,258.855283 C92.4913702,258.493208 93.3314712,258.098868 93.9593173,257.672264 C94.5871635,257.24566 95.0259423,256.797547 95.2774375,256.32434 C95.5289327,255.851132 95.6537885,255.329528 95.6537885,254.761321 C95.6537885,254.03717 95.4040769,253.44566 94.9010865,252.988585 C94.3980962,252.531509 93.6775,252.302075 92.7357308,252.302075 C91.72975,252.302075 90.8058173,252.531509 89.9567981,252.988585 C89.1095625,253.44566 88.3479423,254.04434 87.6737212,254.784623 C86.9977163,255.528491 86.4251635,256.379906 85.9542788,257.34066 C85.4833942,258.303208 85.1230962,259.289057 84.871601,260.298208 L87.4614663,259.825 Z M84.49525,263.80066 C84.5897837,265.913962 85.1230962,267.507453 86.0969712,268.57934 C87.0690625,269.653019 88.57625,270.188962 90.61675,270.188962 C91.8706587,270.188962 93.0657067,270.040189 94.1947596,269.739057 C95.3255962,269.439717 96.3458462,269.117075 97.2555096,268.76934 C97.5391106,269.242547 97.7424471,269.810755 97.8690865,270.47217 C97.9921587,271.135377 98.0563702,271.798585 98.0563702,272.46 C97.5854856,272.680472 97.0129327,272.886604 96.3369279,273.074811 C95.6627067,273.264811 94.9563798,273.429717 94.2179471,273.571321 C93.4812981,273.714717 92.7357308,273.824057 91.9812452,273.902925 C91.2285433,273.981792 90.5382692,274.021226 89.9104231,274.021226 C88.0572067,274.021226 86.4965096,273.777453 85.2247644,273.288113 C83.9530192,272.798774 82.9167163,272.121226 82.1176394,271.253679 C81.3167788,270.386132 80.7353077,269.360849 80.3750096,268.17783 C80.0129279,266.994811 79.8327788,265.709623 79.8327788,264.320472 C79.8327788,262.39717 80.1538365,260.495377 80.7977356,258.618679 C81.4416346,256.741981 82.367351,255.062453 83.5766683,253.580094 C84.7842019,252.095943 86.2289615,250.898585 87.9091635,249.982642 C89.5875817,249.068491 91.4639856,248.611415 93.5348077,248.611415 C95.6074135,248.611415 97.2465913,249.124057 98.4559087,250.14934 C99.665226,251.174623 100.269885,252.538679 100.269885,254.241509 C100.269885,255.63066 99.9309904,256.836981 99.2567692,257.862264 C98.5825481,258.887547 97.6479135,259.762264 96.4564327,260.488208 C95.2613846,261.214151 93.857649,261.81283 92.2416587,262.286038 C90.6238846,262.759245 88.8580673,263.137453 86.9442067,263.422453 L84.49525,263.80066 L84.49525,263.80066 Z" id="Fill-23" fill="#0A0A08"></path>
            <path d="M107.520437,252.916887 L103.612452,252.916887 C103.612452,252.285943 103.651692,251.680094 103.730173,251.093962 C103.808654,250.511415 103.97275,249.873302 104.224245,249.179623 L108.134014,249.179623 L108.367673,247.806604 C108.995519,244.651887 110.135274,242.276887 111.781587,240.683396 C113.429683,239.091698 115.682437,238.294057 118.539851,238.294057 C119.260447,238.294057 119.982827,238.342453 120.705207,238.43566 C121.427587,238.53066 122.108942,238.657925 122.754625,238.81566 C123.39674,238.973396 123.969293,239.138302 124.472284,239.31217 C124.97349,239.486038 125.367678,239.636604 125.649495,239.762075 C125.492534,240.518491 125.30525,241.188868 125.084077,241.773208 C124.864687,242.355755 124.58287,242.932925 124.236841,243.49934 C123.578673,243.18566 122.722519,242.884528 121.670163,242.601321 C120.617808,242.316321 119.590423,242.174717 118.586226,242.174717 C117.111144,242.174717 115.933933,242.576226 115.054591,243.381038 C114.17525,244.185849 113.484976,245.693302 112.983769,247.901604 L112.700168,249.179623 L126.637639,249.179623 L122.399678,273.453019 C122.025111,273.517547 121.616654,273.556981 121.176091,273.571321 C120.735529,273.587453 120.344909,273.596415 119.99888,273.596415 C119.654635,273.596415 119.285418,273.587453 118.893014,273.571321 C118.500611,273.556981 118.131394,273.517547 117.787149,273.453019 L121.411534,252.916887 L112.088375,252.916887 L108.55674,273.169811 C108.180389,275.347642 107.725558,277.192075 107.190462,278.706698 C106.657149,280.221321 105.990062,281.443774 105.190986,282.374057 C104.388341,283.30434 103.430519,283.974717 102.317519,284.385189 C101.202736,284.79566 99.89175,285 98.3863462,285 C97.6942885,285 97.0361202,284.944434 96.408274,284.835094 C95.7804279,284.723962 95.2310625,284.575189 94.7601779,284.385189 C94.8850337,283.659245 95.0419952,283.005 95.2310625,282.42066 C95.4201298,281.836321 95.671625,281.260943 95.9837644,280.694528 C96.2976875,280.82 96.650851,280.92217 97.0432548,281.001038 C97.4356587,281.079906 97.8369808,281.11934 98.2454375,281.11934 C99.0926731,281.11934 99.8061346,281.01717 100.387606,280.811038 C100.967293,280.606698 101.470284,280.212358 101.89301,279.629811 C102.317519,279.045472 102.69387,278.210189 103.023846,277.120377 C103.353822,276.032358 103.67488,274.605566 103.988803,272.838208 L107.520437,252.916887" id="Fill-24" fill="#0A0A08"></path>
            <path d="M134.360861,252.916887 L130.545625,252.916887 C130.545625,252.285943 130.593784,251.680094 130.688317,251.093962 C130.781067,250.511415 130.954082,249.873302 131.205577,249.179623 L134.972654,249.179623 C135.129615,248.358679 135.270524,247.521604 135.397163,246.670189 C135.522019,245.818774 135.584447,244.935094 135.584447,244.020943 L135.584447,243.262736 C136.212293,242.947264 136.966779,242.712453 137.844337,242.552925 C138.723678,242.395189 139.47638,242.316321 140.10601,242.316321 C140.136332,242.601321 140.159519,242.884528 140.175572,243.167736 C140.191625,243.452736 140.200543,243.752075 140.200543,244.067547 C140.200543,245.046226 140.073904,246.261509 139.822409,247.711604 L139.540591,249.179623 L145.615716,249.179623 C145.615716,249.873302 145.567558,250.511415 145.473024,251.093962 C145.37849,251.680094 145.221529,252.285943 145.002139,252.916887 L138.975173,252.916887 L137.13801,263.184057 C136.981048,263.911792 136.840139,264.661038 136.715284,265.433585 C136.588644,266.206132 136.528,266.908774 136.528,267.539717 C136.528,268.486132 136.768793,269.140377 137.257514,269.502453 C137.742668,269.866321 138.393702,270.047358 139.210615,270.047358 C139.743928,270.047358 140.230865,270.007925 140.669644,269.929057 C141.110207,269.850189 141.548986,269.748019 141.987764,269.620755 C142.084082,269.936226 142.160779,270.28217 142.22499,270.66217 C142.287418,271.040377 142.31774,271.450849 142.31774,271.891792 L142.31774,272.578302 C142.31774,272.814906 142.301687,273.060472 142.271365,273.311415 C141.862909,273.438679 141.329596,273.556981 140.669644,273.666321 C140.011476,273.777453 139.305149,273.833019 138.550663,273.833019 C137.546466,273.833019 136.627885,273.761321 135.796702,273.619717 C134.965519,273.478113 134.250274,273.209245 133.654534,272.814906 C133.05701,272.420566 132.595043,271.884623 132.265067,271.207075 C131.935091,270.527736 131.770995,269.636887 131.770995,268.532736 C131.770995,267.934057 131.824505,267.294151 131.935091,266.616604 C132.045678,265.939057 132.163399,265.236415 132.290038,264.510472 L134.360861,252.916887" id="Fill-25" fill="#0A0A08"></path>
            <path d="M152.866269,262.049434 C152.395385,261.861226 151.892394,261.62283 151.359082,261.339623 C150.825769,261.054623 150.338832,260.692547 149.898269,260.251604 C149.45949,259.81066 149.090274,259.249623 148.792404,258.572075 C148.494534,257.892736 148.344707,257.080755 148.344707,256.13434 C148.344707,254.967453 148.580149,253.918868 149.051034,252.988585 C149.523702,252.056509 150.18187,251.269623 151.029106,250.622547 C151.876341,249.975472 152.889457,249.478962 154.066668,249.131226 C155.24388,248.783491 156.553082,248.611415 157.997841,248.611415 C159.285639,248.611415 160.509226,248.753019 161.672168,249.036226 C162.831543,249.321226 163.74299,249.634906 164.401159,249.982642 C164.151447,251.212264 163.696615,252.395283 163.036663,253.531698 C162.503351,253.280755 161.764918,253.019057 160.823149,252.751981 C159.88138,252.483113 158.877183,252.348679 157.810558,252.348679 C156.460332,252.348679 155.338413,252.585283 154.443019,253.058491 C153.547625,253.531698 153.101712,254.352642 153.101712,255.519528 C153.101712,256.245472 153.313966,256.853113 153.736692,257.34066 C154.161202,257.83 154.921038,258.296038 156.021553,258.736981 L157.056072,259.210189 C157.653596,259.493396 158.272524,259.794528 158.916423,260.11 C159.558538,260.425472 160.141793,260.812642 160.659053,261.269717 C161.176312,261.726792 161.600822,262.278868 161.930798,262.924151 C162.260774,263.571226 162.42487,264.368868 162.42487,265.313491 C162.42487,266.829906 162.143053,268.129434 161.577635,269.219245 C161.012216,270.307264 160.234543,271.207075 159.246399,271.916887 C158.258255,272.626698 157.111365,273.153679 155.809298,273.501415 C154.505447,273.847358 153.101712,274.021226 151.594524,274.021226 C150.338832,274.021226 149.106327,273.910094 147.898793,273.689623 C146.689476,273.469151 145.692413,273.185943 144.907606,272.838208 C144.970034,272.146321 145.087755,271.483113 145.260769,270.850377 C145.433784,270.221226 145.692413,269.620755 146.038442,269.052547 C146.855356,269.400283 147.811394,269.676321 148.910125,269.88066 C150.008856,270.086792 151.029106,270.188962 151.970875,270.188962 C152.755683,270.188962 153.494115,270.117264 154.184389,269.97566 C154.874663,269.834057 155.472187,269.613585 155.973394,269.312453 C156.476385,269.013113 156.875923,268.611604 157.175577,268.106132 C157.473447,267.602453 157.62149,266.971509 157.62149,266.213302 C157.62149,265.236415 157.339673,264.503302 156.774255,264.013962 C156.208837,263.524623 155.407976,263.074717 154.373457,262.664245 L152.866269,262.049434" id="Fill-26" fill="#0A0A08"></path>
            <path d="M181.431486,270.378962 C181.718654,270.45783 182.073601,270.522358 182.490976,270.576132 C182.910135,270.628113 183.300755,270.653208 183.668187,270.653208 C184.872154,270.653208 185.990505,270.404057 187.02324,269.905755 C188.055976,269.40566 188.946019,268.715566 189.691587,267.835472 C190.437154,266.955377 191.02576,265.910377 191.457404,264.700472 C191.889048,263.490566 192.10487,262.174906 192.10487,260.757075 C192.10487,259.337453 191.812351,258.213585 191.221962,257.385472 C190.633356,256.557358 189.762933,256.141509 188.61426,256.141509 C187.932904,256.141509 187.280087,256.286698 186.650457,256.575283 C186.020827,256.86566 185.439356,257.324528 184.90426,257.955472 C184.36738,258.588208 183.889361,259.409151 183.471986,260.420094 C183.052827,261.43283 182.726418,262.675 182.490976,264.148396 L181.431486,270.378962 Z M180.685918,252.631887 C180.921361,251.18717 181.115779,249.93066 181.274524,248.867736 C181.431486,247.801226 181.509966,246.849434 181.509966,246.006981 L181.509966,245.220094 C181.509966,245.035472 181.495697,244.811415 181.47251,244.549717 C181.757894,244.495943 182.105707,244.456509 182.510596,244.431415 C182.915486,244.404528 183.263298,244.391981 183.55225,244.391981 C183.812663,244.391981 184.105183,244.397358 184.433375,244.409906 C184.759784,244.424245 185.066572,244.456509 185.355524,244.510283 C185.380495,244.773774 185.401899,245.015755 185.416168,245.238019 C185.42687,245.462075 185.434005,245.705849 185.434005,245.96934 C185.434005,246.573396 185.36801,247.362075 185.237803,248.333585 C185.107596,249.306887 184.96312,250.213868 184.806159,251.054528 L183.90363,256.22217 C184.242524,255.748962 184.615308,255.300849 185.021981,254.881415 C185.42687,254.460189 185.892404,254.092736 186.415014,253.775472 C186.937625,253.461792 187.526231,253.210849 188.180832,253.026226 C188.835433,252.843396 189.581,252.751981 190.417534,252.751981 C192.222591,252.751981 193.647731,253.388302 194.696519,254.664528 C195.74174,255.938962 196.264351,257.733208 196.264351,260.047264 C196.264351,261.913208 195.982534,263.680566 195.420683,265.34934 C194.858832,267.019906 194.008029,268.491509 192.870058,269.765943 C191.732087,271.04217 190.306947,272.054906 188.592856,272.804151 C186.878764,273.553396 184.872154,273.928019 182.569457,273.928019 C181.575962,273.928019 180.580683,273.834811 179.587187,273.650189 C178.591909,273.467358 177.767861,273.243302 177.115043,272.979811 L180.685918,252.631887 L180.685918,252.631887 Z" id="Fill-27" fill="#0A0A08"></path>
            <path d="M206.429394,271.481321 C207.265928,269.669151 208.011495,268.011132 208.666096,266.512642 C209.31713,265.014151 209.91287,263.633962 210.44975,262.372075 C210.98663,261.110189 211.47,259.954057 211.901644,258.901887 C212.333288,257.851509 212.731043,256.851321 213.098476,255.904906 C213.255437,255.485472 213.371375,255.078585 213.451639,254.682453 C213.53012,254.289906 213.571144,253.986981 213.571144,253.775472 C213.571144,253.644623 213.56401,253.54066 213.54974,253.461792 C213.535471,253.381132 213.53012,253.302264 213.53012,253.223396 C214.02776,253.144528 214.577125,253.105094 215.178216,253.105094 L217.650361,253.105094 C217.677115,253.210849 217.689601,253.316604 217.689601,253.422358 L217.689601,253.736038 C217.689601,254.368774 217.559394,255.051698 217.298981,255.788396 C217.035,256.523302 216.747832,257.26 216.433909,257.994906 C215.256697,260.545566 213.995654,263.273679 212.647212,266.177453 C211.298769,269.084811 209.789798,272.296887 208.114947,275.819057 C207.383649,277.371321 206.677322,278.618868 205.99775,279.567075 C205.316394,280.511698 204.642173,281.248396 203.97687,281.775377 C203.308,282.300566 202.635562,282.655472 201.954207,282.838302 C201.272851,283.022925 200.541553,283.116132 199.758529,283.116132 C198.841731,283.116132 197.951688,282.983491 197.090183,282.72 C197.11337,282.14283 197.193635,281.590755 197.323841,281.065566 C197.455832,280.538585 197.664519,280.077925 197.951688,279.685377 C198.18713,279.764245 198.476082,279.835943 198.814976,279.902264 C199.155654,279.966792 199.469577,279.999057 199.758529,279.999057 C200.149149,279.999057 200.555822,279.941698 200.973197,279.823396 C201.392356,279.703302 201.831135,279.421887 202.28775,278.975566 C202.744365,278.527453 203.236654,277.869623 203.761048,277.002075 C204.283659,276.136321 204.857995,274.951509 205.485841,273.453019 C205.27537,273.479906 205.054197,273.492453 204.820538,273.492453 L204.112428,273.492453 L203.523822,273.492453 C203.315135,273.492453 203.131418,273.479906 202.974457,273.453019 C202.530327,270.088585 202.091548,266.724151 201.659904,263.359717 C201.22826,259.993491 200.789481,256.614717 200.347135,253.223396 C200.712784,253.171415 201.044543,253.131981 201.345981,253.105094 C201.645635,253.08 201.980962,253.06566 202.346611,253.06566 C202.71226,253.06566 203.067207,253.08 203.406101,253.105094 C203.746779,253.131981 204.085673,253.171415 204.426351,253.223396 L206.429394,271.481321" id="Fill-28" fill="#0A0A08"></path>
            <path d="M236.330567,269.479151 C236.73724,269.541887 237.30801,269.597453 238.046442,269.644057 C238.786659,269.692453 239.50012,269.715755 240.190394,269.715755 C242.35575,269.715755 244.301716,269.307075 246.028293,268.486132 C247.756654,267.665189 249.215683,266.528774 250.407163,265.078679 C251.602212,263.628585 252.511875,261.90783 253.137937,259.92 C253.767567,257.93217 254.08149,255.772264 254.08149,253.436698 C254.08149,250.093774 253.312736,247.537736 251.773442,245.77217 C250.235933,244.004811 247.738817,243.121132 244.285663,243.121132 C243.659601,243.121132 243.070995,243.144434 242.519846,243.19283 C241.972264,243.239434 241.430034,243.295 240.896721,243.357736 L236.330567,269.479151 Z M236.753293,239.430472 C237.2545,239.367736 237.819918,239.305 238.447764,239.240472 C239.075611,239.177736 239.71951,239.12217 240.377678,239.075566 C241.03763,239.02717 241.681529,238.987736 242.309375,238.957264 C242.937221,238.926792 243.534745,238.91066 244.09838,238.91066 C246.736404,238.91066 249.010562,239.240472 250.926207,239.903679 C252.840067,240.565094 254.409683,241.50434 255.636837,242.719623 C256.858639,243.933113 257.761168,245.39217 258.342639,247.096792 C258.924111,248.799623 259.214846,250.692453 259.214846,252.775283 C259.214846,255.772264 258.781418,258.555943 257.91813,261.126321 C257.054841,263.698491 255.775962,265.946226 254.08149,267.869528 C252.387019,269.794623 250.275173,271.300283 247.747736,272.388302 C245.220298,273.478113 242.293322,274.021226 238.966808,274.021226 C237.270553,274.021226 235.724125,273.96566 234.327524,273.856321 C232.929139,273.745189 231.76263,273.610755 230.819077,273.453019 L236.753293,239.430472 L236.753293,239.430472 Z" id="Fill-29" fill="#0A0A08"></path>
            <path d="M270.371601,259.825 C271.975106,259.541792 273.298577,259.219151 274.350933,258.855283 C275.403288,258.493208 276.243389,258.098868 276.871236,257.672264 C277.500865,257.24566 277.939644,256.797547 278.189356,256.32434 C278.440851,255.851132 278.565707,255.329528 278.565707,254.761321 C278.565707,254.03717 278.315995,253.44566 277.813005,252.988585 C277.310014,252.531509 276.589418,252.302075 275.647649,252.302075 C274.641668,252.302075 273.715952,252.531509 272.868716,252.988585 C272.019697,253.44566 271.261644,254.04434 270.585639,254.784623 C269.909635,255.528491 269.337082,256.379906 268.867981,257.34066 C268.395312,258.303208 268.035014,259.289057 267.783519,260.298208 L270.371601,259.825 Z M267.405385,263.80066 C267.501702,265.913962 268.035014,267.507453 269.007106,268.57934 C269.980981,269.653019 271.486385,270.188962 273.528668,270.188962 C274.782577,270.188962 275.977625,270.040189 277.106678,269.739057 C278.237514,269.439717 279.255981,269.117075 280.169212,268.76934 C280.451029,269.242547 280.652582,269.810755 280.779221,270.47217 C280.904077,271.135377 280.968288,271.798585 280.968288,272.46 C280.49562,272.680472 279.924851,272.886604 279.248846,273.074811 C278.572841,273.264811 277.868298,273.429717 277.131649,273.571321 C276.391433,273.714717 275.647649,273.824057 274.894947,273.902925 C274.140462,273.981792 273.448404,274.021226 272.822341,274.021226 C270.967341,274.021226 269.406644,273.777453 268.136683,273.288113 C266.864937,272.798774 265.830418,272.121226 265.027774,271.253679 C264.226913,270.386132 263.647226,269.360849 263.286928,268.17783 C262.924846,266.994811 262.744697,265.709623 262.744697,264.320472 C262.744697,262.39717 263.067538,260.495377 263.709654,258.618679 C264.351769,256.741981 265.279269,255.062453 266.488587,253.580094 C267.69612,252.095943 269.14088,250.898585 270.819298,249.982642 C272.4995,249.068491 274.375904,248.611415 276.44851,248.611415 C278.519332,248.611415 280.15851,249.124057 281.367827,250.14934 C282.575361,251.174623 283.181803,252.538679 283.181803,254.241509 C283.181803,255.63066 282.844692,256.836981 282.168687,257.862264 C281.492683,258.887547 280.558048,259.762264 279.366567,260.488208 C278.173303,261.214151 276.767784,261.81283 275.151793,262.286038 C273.535803,262.759245 271.769986,263.137453 269.854341,263.422453 L267.405385,263.80066 L267.405385,263.80066 Z" id="Fill-30" fill="#0A0A08"></path>
            <path d="M292.173202,262.049434 C291.702317,261.861226 291.201111,261.62283 290.667798,261.339623 C290.134486,261.054623 289.647548,260.692547 289.208769,260.251604 C288.768207,259.81066 288.400774,259.249623 288.10112,258.572075 C287.80325,257.892736 287.655207,257.080755 287.655207,256.13434 C287.655207,254.967453 287.888865,253.918868 288.35975,252.988585 C288.832418,252.056509 289.490587,251.269623 290.337822,250.622547 C291.185058,249.975472 292.198173,249.478962 293.375385,249.131226 C294.552596,248.783491 295.863582,248.611415 297.308341,248.611415 C298.594356,248.611415 299.817942,248.753019 300.980885,249.036226 C302.14026,249.321226 303.05349,249.634906 303.711659,249.982642 C303.460163,251.212264 303.003548,252.395283 302.34538,253.531698 C301.812067,253.280755 301.073635,253.019057 300.133649,252.751981 C299.190096,252.483113 298.185899,252.348679 297.119274,252.348679 C295.769048,252.348679 294.64713,252.585283 293.751736,253.058491 C292.856341,253.531698 292.410428,254.352642 292.410428,255.519528 C292.410428,256.245472 292.622683,256.853113 293.045409,257.34066 C293.469918,257.83 294.229755,258.296038 295.330269,258.736981 L296.364788,259.210189 C296.962312,259.493396 297.58124,259.794528 298.225139,260.11 C298.869038,260.425472 299.45051,260.812642 299.967769,261.269717 C300.485029,261.726792 300.911322,262.278868 301.237731,262.924151 C301.56949,263.571226 301.733587,264.368868 301.733587,265.313491 C301.733587,266.829906 301.449986,268.129434 300.886351,269.219245 C300.322716,270.307264 299.545043,271.207075 298.555115,271.916887 C297.566971,272.626698 296.420082,273.153679 295.118014,273.501415 C293.814163,273.847358 292.410428,274.021226 290.90324,274.021226 C289.647548,274.021226 288.415043,273.910094 287.205726,273.689623 C285.996409,273.469151 285.00113,273.185943 284.216322,272.838208 C284.27875,272.146321 284.398255,271.483113 284.569486,270.850377 C284.7425,270.221226 285.00113,269.620755 285.347159,269.052547 C286.164072,269.400283 287.120111,269.676321 288.218841,269.88066 C289.317572,270.086792 290.337822,270.188962 291.279591,270.188962 C292.066183,270.188962 292.802832,270.117264 293.493106,269.97566 C294.18338,269.834057 294.77912,269.613585 295.282111,269.312453 C295.785101,269.013113 296.184639,268.611604 296.48251,268.106132 C296.782163,267.602453 296.930207,266.971509 296.930207,266.213302 C296.930207,265.236415 296.648389,264.503302 296.082971,264.013962 C295.517553,263.524623 294.716692,263.074717 293.682173,262.664245 L292.173202,262.049434" id="Fill-31" fill="#0A0A08"></path>
            <path d="M310.962212,244.162547 C310.962212,243.246604 311.040692,242.380849 311.197654,241.559906 C311.354615,240.740755 311.557952,239.903679 311.811231,239.052264 C312.25001,238.987736 312.720894,238.941132 313.222101,238.91066 C313.723308,238.878396 314.165654,238.862264 314.542005,238.862264 C314.918356,238.862264 315.35,238.878396 315.836937,238.91066 C316.322091,238.941132 316.769788,238.987736 317.180029,239.052264 C317.147923,239.966415 317.051606,240.842925 316.896428,241.678208 C316.739466,242.513491 316.534346,243.343396 316.284635,244.162547 C315.844072,244.225283 315.373187,244.264717 314.871981,244.280849 C314.36899,244.296981 313.928428,244.304151 313.552077,244.304151 C313.207832,244.304151 312.783322,244.296981 312.282115,244.280849 C311.779125,244.264717 311.340346,244.225283 310.962212,244.162547 Z M311.01037,252.916887 L308.090529,252.916887 C308.090529,252.285943 308.127986,251.671132 308.20825,251.07066 C308.284947,250.471981 308.450827,249.841038 308.704106,249.179623 L316.236476,249.179623 L311.998514,273.453019 C311.652486,273.517547 311.252947,273.556981 310.798115,273.571321 C310.343284,273.587453 309.941962,273.596415 309.597716,273.596415 C309.249904,273.596415 308.891389,273.587453 308.515038,273.571321 C308.136904,273.556981 307.776606,273.517547 307.432361,273.453019 L311.01037,252.916887 L311.01037,252.916887 Z" id="Fill-32" fill="#0A0A08"></path>
            <path d="M337.378125,252.821887 C336.625423,252.631887 335.776404,252.538679 334.834635,252.538679 C333.265019,252.538679 331.852365,252.900755 330.598457,253.626698 C329.340981,254.352642 328.274356,255.322358 327.395014,256.537642 C326.515673,257.751132 325.832534,259.124151 325.34738,260.653113 C324.860442,262.183868 324.617865,263.752264 324.617865,265.361887 C324.617865,266.876509 324.899683,268.052358 325.465101,268.887642 C326.030519,269.722925 326.83138,270.140566 327.867683,270.140566 C328.870096,270.140566 329.822567,269.826887 330.716178,269.195943 C331.609788,268.563208 332.426702,267.697453 333.165135,266.591509 C333.901784,265.489151 334.545683,264.18783 335.095048,262.68934 C335.64263,261.190849 336.090327,259.574057 336.438139,257.838962 L337.378125,252.821887 Z M334.929168,267.964528 C334.583139,268.658208 334.130091,269.360849 333.562889,270.07066 C332.999255,270.780472 332.341087,271.427547 331.586601,272.010094 C330.832115,272.594434 329.992014,273.074811 329.068082,273.453019 C328.140582,273.833019 327.143519,274.021226 326.076894,274.021226 C324.004288,274.021226 322.443591,273.336509 321.391236,271.963491 C320.33888,270.590472 319.814486,268.720943 319.814486,266.356698 C319.814486,264.116132 320.160514,261.931132 320.850788,259.801698 C321.541062,257.672264 322.561312,255.779434 323.909755,254.123208 C325.261764,252.466981 326.940183,251.135189 328.950361,250.124245 C330.956971,249.115094 333.297125,248.611415 335.967255,248.611415 C337.096308,248.611415 338.248548,248.697453 339.42576,248.871321 C340.602971,249.045189 341.632139,249.288962 342.511481,249.604434 C341.789101,253.580094 341.091692,257.523491 340.415688,261.434623 C339.739683,265.347547 339.042274,269.289151 338.319894,273.264811 C337.94176,275.408585 337.315697,277.22434 336.438139,278.706698 C335.557014,280.189057 334.474337,281.395377 333.186538,282.327453 C331.900524,283.255943 330.439712,283.935283 328.807668,284.360094 C327.175625,284.786698 325.418726,285 323.533404,285 C322.468562,285 321.39837,284.905 320.331745,284.716792 C319.26512,284.526792 318.383995,284.290189 317.695505,284.006981 C317.725827,282.650094 318.071856,281.388208 318.731808,280.221321 C319.359654,280.379057 320.096303,280.543962 320.945322,280.71783 C321.792558,280.889906 322.718274,280.977736 323.722471,280.977736 C325.136909,280.977736 326.390817,280.836132 327.489548,280.551132 C328.588279,280.267925 329.56037,279.794717 330.411173,279.131509 C331.256625,278.470094 331.97187,277.600755 332.553341,276.528868 C333.131245,275.456981 333.594995,274.116226 333.941024,272.508396 L334.929168,267.964528 L334.929168,267.964528 Z" id="Fill-33" fill="#0A0A08"></path>
            <path d="M348.538447,259.400189 C348.882692,257.507358 349.155591,255.881604 349.362495,254.524717 C349.565832,253.169623 349.669284,251.986604 349.669284,250.97566 C349.669284,250.566981 349.660365,250.242547 349.644312,250.005943 C349.62826,249.76934 349.589019,249.478962 349.524808,249.131226 C349.870837,249.068491 350.248971,249.021887 350.657428,248.989623 C351.065885,248.957358 351.442236,248.941226 351.786481,248.941226 C352.100404,248.941226 352.453567,248.957358 352.845971,248.989623 C353.238375,249.021887 353.591538,249.068491 353.905462,249.131226 C353.967889,249.383962 354.016048,249.67434 354.048154,250.005943 C354.078476,250.337547 354.092745,250.771321 354.092745,251.309057 C354.092745,251.907736 354.055288,252.474151 353.976808,253.011887 C353.898327,253.54783 353.810928,254.069434 353.716394,254.573113 C354.030317,253.909906 354.47088,253.223396 355.034514,252.513585 C355.601716,251.803774 356.259885,251.16566 357.01437,250.599245 C357.767072,250.031038 358.605389,249.556038 359.532889,249.179623 C360.456822,248.799623 361.439615,248.611415 362.475918,248.611415 C364.359457,248.611415 365.82562,249.115094 366.877976,250.124245 C367.930332,251.135189 368.45651,252.696415 368.45651,254.809717 C368.45651,255.282925 368.424404,255.811698 368.361976,256.394245 C368.299548,256.978585 368.221067,257.539623 368.126534,258.073774 L365.442135,273.453019 C365.065784,273.517547 364.657327,273.564151 364.218548,273.596415 C363.777986,273.626887 363.385582,273.643019 363.041337,273.643019 C362.695308,273.643019 362.310038,273.626887 361.887312,273.596415 C361.462803,273.564151 361.093587,273.517547 360.781447,273.453019 L363.323154,258.878585 C363.417687,258.374906 363.489034,257.885566 363.535409,257.412358 C363.581784,256.939151 363.606755,256.530472 363.606755,256.180943 C363.606755,254.920849 363.316019,254.021038 362.734548,253.485094 C362.154861,252.949151 361.377187,252.680283 360.403312,252.680283 C359.556077,252.680283 358.724894,252.940189 357.907981,253.461792 C357.092851,253.981604 356.322312,254.746981 355.601716,255.756132 C354.877553,256.765283 354.226519,258.011038 353.646832,259.493396 C353.065361,260.977547 352.601611,262.680377 352.257365,264.603679 L350.703803,273.453019 C350.327452,273.517547 349.918995,273.564151 349.480216,273.596415 C349.039654,273.626887 348.64725,273.643019 348.303005,273.643019 C347.956976,273.643019 347.571707,273.626887 347.148981,273.596415 C346.724471,273.564151 346.355255,273.517547 346.041332,273.453019 L348.538447,259.400189" id="Fill-34" fill="#0A0A08"></path>
        </g>
    </g>
</svg>