<?xml version="1.0" encoding="UTF-8"?>
<svg xmlns="http://www.w3.org/2000/svg" xmlns:xlink="http://www.w3.org/1999/xlink" width="351.76pt" height="90.76pt" viewBox="0 0 351.76 90.76" version="1.1">
<g id="surface1">
<path style=" stroke:none;fill-rule:nonzero;fill:rgb(10.588074%,9.01947%,9.411621%);fill-opacity:1;" d="M 59.714844 52.894531 C 59.558594 53.601562 58.945312 54.902344 58.496094 55.472656 L 34.882812 85.679688 L 11.71875 56.046875 L 64.882812 29.753906 Z M 4.253906 26.914062 C 4.191406 26.59375 4.355469 25.855469 4.546875 25.597656 L 20.296875 5.402344 L 43.785156 35.453125 L 9.898438 52.214844 Z M 48.988281 4.789062 L 64.800781 25.0625 L 47.667969 33.535156 L 24.769531 4.238281 L 47.859375 4.238281 C 48.160156 4.253906 48.796875 4.558594 48.988281 4.789062 Z M 68.5625 22.988281 L 52.335938 2.179688 C 51.363281 0.933594 49.441406 -0.00390625 47.863281 -0.00390625 L 21.902344 -0.00390625 C 20.324219 -0.00390625 18.402344 0.933594 17.429688 2.179688 L 1.199219 22.988281 C 0.238281 24.222656 -0.230469 26.304688 0.109375 27.835938 L 5.910156 53.816406 C 6.203125 55.140625 7.089844 57.015625 7.925781 58.085938 L 32.53125 89.5625 C 33.128906 90.324219 33.984375 90.761719 34.882812 90.761719 C 35.78125 90.761719 36.640625 90.324219 37.234375 89.5625 L 61.839844 58.085938 C 62.675781 57.015625 63.5625 55.140625 63.855469 53.816406 L 69.65625 27.835938 C 69.996094 26.304688 69.527344 24.222656 68.5625 22.988281 "/>
<path style=" stroke:none;fill-rule:nonzero;fill:rgb(10.588074%,9.01947%,9.411621%);fill-opacity:1;" d="M 105.691406 61.355469 C 111.324219 61.355469 115.621094 60.03125 118.585938 57.382812 C 121.546875 54.734375 123.027344 50.859375 123.027344 45.753906 C 123.027344 40.699219 121.65625 36.699219 118.917969 33.761719 C 116.175781 30.824219 111.769531 29.355469 105.691406 29.355469 L 97.46875 29.355469 L 97.46875 61.355469 Z M 88.136719 21.265625 L 106.582031 21.265625 C 110.433594 21.265625 113.964844 21.746094 117.175781 22.710938 C 120.386719 23.675781 123.152344 25.140625 125.472656 27.117188 C 127.792969 29.089844 129.597656 31.621094 130.882812 34.699219 C 132.164062 37.785156 132.808594 41.417969 132.808594 45.609375 C 132.808594 49.605469 132.152344 53.085938 130.84375 56.046875 C 129.535156 59.007812 127.707031 61.488281 125.363281 63.488281 C 123.015625 65.484375 120.238281 66.980469 117.027344 67.964844 C 113.816406 68.953125 110.3125 69.445312 106.507812 69.445312 L 88.136719 69.445312 L 88.136719 21.265625 "/>
<path style=" stroke:none;fill-rule:nonzero;fill:rgb(10.588074%,9.01947%,9.411621%);fill-opacity:1;" d="M 155.09375 63.234375 C 156.773438 63.234375 158.230469 62.910156 159.464844 62.257812 C 160.699219 61.609375 161.726562 60.753906 162.539062 59.695312 C 163.355469 58.636719 163.960938 57.480469 164.355469 56.226562 C 164.75 54.976562 164.945312 53.722656 164.945312 52.46875 C 164.945312 51.265625 164.75 50.027344 164.355469 48.75 C 163.960938 47.476562 163.355469 46.320312 162.539062 45.285156 C 161.726562 44.246094 160.699219 43.40625 159.464844 42.753906 C 158.230469 42.105469 156.773438 41.78125 155.09375 41.78125 C 153.414062 41.78125 151.957031 42.105469 150.722656 42.753906 C 149.488281 43.40625 148.464844 44.246094 147.648438 45.285156 C 146.835938 46.320312 146.230469 47.476562 145.835938 48.75 C 145.4375 50.027344 145.242188 51.265625 145.242188 52.46875 C 145.242188 53.722656 145.4375 54.976562 145.835938 56.226562 C 146.230469 57.480469 146.835938 58.636719 147.648438 59.695312 C 148.464844 60.753906 149.488281 61.609375 150.722656 62.257812 C 151.957031 62.910156 153.414062 63.234375 155.09375 63.234375 Z M 136.425781 52.46875 C 136.425781 50.015625 136.882812 47.691406 137.796875 45.5 C 138.710938 43.308594 139.980469 41.394531 141.613281 39.757812 C 143.242188 38.121094 145.203125 36.820312 147.503906 35.855469 C 149.796875 34.894531 152.328125 34.410156 155.09375 34.410156 C 157.859375 34.410156 160.390625 34.894531 162.6875 35.855469 C 164.984375 36.820312 166.945312 38.121094 168.578125 39.757812 C 170.207031 41.394531 171.476562 43.308594 172.394531 45.5 C 173.304688 47.691406 173.765625 50.015625 173.765625 52.46875 C 173.765625 54.925781 173.304688 57.25 172.394531 59.441406 C 171.476562 61.632812 170.207031 63.558594 168.578125 65.222656 C 166.945312 66.882812 164.984375 68.195312 162.6875 69.15625 C 160.390625 70.121094 157.859375 70.601562 155.09375 70.601562 C 152.328125 70.601562 149.796875 70.121094 147.503906 69.15625 C 145.203125 68.195312 143.242188 66.882812 141.613281 65.222656 C 139.980469 63.558594 138.710938 61.632812 137.796875 59.441406 C 136.882812 57.25 136.425781 54.925781 136.425781 52.46875 "/>
<path style=" stroke:none;fill-rule:nonzero;fill:rgb(10.588074%,9.01947%,9.411621%);fill-opacity:1;" d="M 178.003906 35.566406 L 186.375 35.566406 L 186.597656 39.394531 C 187.042969 38.914062 187.546875 38.398438 188.117188 37.84375 C 188.683594 37.289062 189.375 36.796875 190.191406 36.363281 C 191.007812 35.929688 191.941406 35.566406 193.003906 35.277344 C 194.066406 34.988281 195.289062 34.847656 196.671875 34.847656 C 201.265625 34.847656 204.746094 36.484375 207.117188 39.757812 C 208.894531 37.976562 210.710938 36.710938 212.5625 35.964844 C 214.414062 35.21875 216.574219 34.847656 219.046875 34.847656 C 223.441406 34.847656 226.8125 36.109375 229.15625 38.636719 C 231.503906 41.164062 232.675781 44.574219 232.675781 48.859375 L 232.675781 69.445312 L 223.933594 69.445312 L 223.933594 48.929688 C 223.933594 46.765625 223.378906 45.089844 222.269531 43.910156 C 221.15625 42.730469 219.636719 42.140625 217.710938 42.140625 C 216.527344 42.140625 215.441406 42.371094 214.453125 42.828125 C 213.464844 43.285156 212.613281 43.925781 211.894531 44.742188 C 211.179688 45.5625 210.636719 46.511719 210.265625 47.59375 C 209.898438 48.679688 209.710938 49.847656 209.710938 51.097656 L 209.710938 69.445312 L 200.96875 69.445312 L 200.96875 48.929688 C 200.96875 46.765625 200.414062 45.089844 199.304688 43.910156 C 198.191406 42.730469 196.671875 42.140625 194.746094 42.140625 C 193.5625 42.140625 192.476562 42.371094 191.488281 42.828125 C 190.5 43.285156 189.648438 43.925781 188.929688 44.742188 C 188.214844 45.5625 187.671875 46.511719 187.300781 47.59375 C 186.933594 48.679688 186.746094 49.847656 186.746094 51.097656 L 186.746094 69.445312 L 178.003906 69.445312 L 178.003906 35.566406 "/>
<path style=" stroke:none;fill-rule:nonzero;fill:rgb(10.588074%,9.01947%,9.411621%);fill-opacity:1;" d="M 259.746094 54.132812 C 258.855469 54.085938 257.992188 54.035156 257.152344 53.988281 C 256.460938 53.941406 255.730469 53.90625 254.96875 53.878906 C 254.199219 53.855469 253.546875 53.84375 253.003906 53.84375 C 250.1875 53.84375 248.214844 54.386719 247.078125 55.46875 C 245.941406 56.550781 245.375 57.792969 245.375 59.191406 C 245.375 60.632812 245.902344 61.765625 246.96875 62.585938 C 248.027344 63.402344 249.597656 63.8125 251.671875 63.8125 C 252.707031 63.8125 253.707031 63.644531 254.671875 63.304688 C 255.632812 62.96875 256.488281 62.511719 257.226562 61.933594 C 257.96875 61.355469 258.570312 60.683594 259.039062 59.910156 C 259.511719 59.140625 259.746094 58.320312 259.746094 57.453125 Z M 259.746094 66.269531 C 258.804688 67.375 257.375 68.363281 255.449219 69.230469 C 253.523438 70.097656 251.375 70.53125 249.003906 70.53125 C 247.570312 70.53125 246.152344 70.3125 244.742188 69.878906 C 243.335938 69.445312 242.050781 68.785156 240.890625 67.894531 C 239.730469 67.003906 238.792969 65.859375 238.078125 64.460938 C 237.359375 63.066406 237.003906 61.429688 237.003906 59.550781 C 237.003906 57.625 237.375 55.902344 238.113281 54.386719 C 238.855469 52.867188 239.894531 51.59375 241.226562 50.554688 C 242.558594 49.523438 244.164062 48.738281 246.039062 48.207031 C 247.917969 47.679688 249.992188 47.414062 252.261719 47.414062 C 252.953125 47.414062 253.71875 47.429688 254.558594 47.449219 C 255.398438 47.476562 256.214844 47.511719 257.003906 47.558594 C 257.894531 47.609375 258.804688 47.65625 259.746094 47.703125 L 259.746094 46.910156 C 259.746094 45.222656 259.054688 43.902344 257.671875 42.9375 C 256.289062 41.972656 254.484375 41.492188 252.261719 41.492188 C 249.792969 41.492188 247.816406 41.804688 246.335938 42.429688 C 244.855469 43.054688 243.546875 43.730469 242.410156 44.453125 L 238.410156 38.671875 C 239.101562 38.191406 239.894531 37.699219 240.78125 37.195312 C 241.667969 36.6875 242.707031 36.230469 243.894531 35.820312 C 245.078125 35.414062 246.449219 35.074219 248.003906 34.808594 C 249.558594 34.546875 251.375 34.410156 253.449219 34.410156 C 255.671875 34.410156 257.683594 34.714844 259.484375 35.3125 C 261.289062 35.917969 262.832031 36.757812 264.117188 37.84375 C 265.398438 38.925781 266.386719 40.226562 267.078125 41.746094 C 267.769531 43.261719 268.117188 44.910156 268.117188 46.691406 L 268.117188 69.445312 L 259.96875 69.445312 L 259.746094 66.269531 "/>
<path style=" stroke:none;fill-rule:nonzero;fill:rgb(10.588074%,9.01947%,9.411621%);fill-opacity:1;" d="M 273.378906 69.445312 L 282.121094 69.445312 L 282.121094 35.566406 L 273.378906 35.566406 Z M 273.378906 69.445312 "/>
<path style=" stroke:none;fill-rule:nonzero;fill:rgb(10.588074%,9.01947%,9.411621%);fill-opacity:1;" d="M 287.386719 35.566406 L 295.757812 35.566406 L 295.976562 39.394531 C 296.421875 38.914062 296.953125 38.410156 297.570312 37.878906 C 298.1875 37.351562 298.929688 36.855469 299.792969 36.398438 C 300.65625 35.941406 301.632812 35.566406 302.71875 35.277344 C 303.804688 34.988281 305.039062 34.847656 306.425781 34.847656 C 310.769531 34.847656 314.078125 36.109375 316.351562 38.636719 C 318.621094 41.164062 319.757812 44.574219 319.757812 48.859375 L 319.757812 69.445312 L 311.015625 69.445312 L 311.015625 48.929688 C 311.015625 46.765625 310.410156 45.089844 309.203125 43.910156 C 307.992188 42.730469 306.425781 42.140625 304.496094 42.140625 C 303.3125 42.140625 302.203125 42.371094 301.164062 42.828125 C 300.128906 43.285156 299.238281 43.925781 298.496094 44.742188 C 297.757812 45.5625 297.175781 46.511719 296.757812 47.59375 C 296.335938 48.679688 296.128906 49.847656 296.128906 51.097656 L 296.128906 69.445312 L 287.386719 69.445312 L 287.386719 35.566406 "/>
<path style=" stroke:none;fill-rule:nonzero;fill:rgb(10.588074%,9.01947%,9.411621%);fill-opacity:1;" d="M 324.621094 69.445312 C 325.71875 66.03125 327.054688 62.347656 328.621094 58.394531 C 330.191406 54.445312 331.808594 50.621094 333.484375 46.921875 C 335.15625 43.226562 336.777344 39.847656 338.347656 36.789062 C 339.914062 33.730469 341.222656 31.386719 342.269531 29.753906 L 319.757812 29.753906 L 319.757812 21.265625 L 351.757812 21.265625 L 351.757812 29.371094 C 351.078125 30.441406 350.253906 31.894531 349.289062 33.730469 C 348.320312 35.566406 347.289062 37.644531 346.191406 39.964844 C 345.09375 42.285156 343.980469 44.757812 342.855469 47.382812 C 341.730469 50.007812 340.648438 52.632812 339.601562 55.257812 C 338.554688 57.886719 337.601562 60.421875 336.738281 62.871094 C 335.875 65.316406 335.183594 67.511719 334.660156 69.445312 L 324.621094 69.445312 "/>
<path style=" stroke:none;fill-rule:nonzero;fill:rgb(10.588074%,9.01947%,9.411621%);fill-opacity:1;" d="M 273.878906 28.628906 C 272.828125 27.578125 272.300781 26.289062 272.300781 24.757812 C 272.300781 23.230469 272.828125 21.941406 273.878906 20.886719 C 274.933594 19.835938 276.226562 19.308594 277.75 19.308594 C 279.277344 19.308594 280.570312 19.835938 281.621094 20.886719 C 282.675781 21.941406 283.199219 23.230469 283.199219 24.757812 C 283.199219 26.289062 282.675781 27.578125 281.621094 28.628906 C 280.570312 29.683594 279.277344 30.210938 277.75 30.210938 C 276.226562 30.210938 274.933594 29.683594 273.878906 28.628906 "/>
</g>
</svg>
