<svg id="svg" version="1.1" width="400" height="300" viewBox="0 0 400 300" xmlns="http://www.w3.org/2000/svg" xmlns:xlink="http://www.w3.org/1999/xlink" ><g id="svgg"><path id="path0" d="M195.649 83.082 C 193.421 84.375,188.020 87.497,183.646 90.020 C 179.272 92.543,174.006 95.581,171.943 96.772 C 161.545 102.772,160.302 103.555,160.126 104.211 C 160.028 104.577,159.946 115.028,159.944 127.437 L 159.940 149.997 157.464 151.469 C 156.103 152.278,154.381 153.280,153.638 153.696 C 152.896 154.112,147.899 156.992,142.536 160.097 C 137.172 163.202,130.218 167.221,127.082 169.029 C 119.937 173.149,119.844 173.246,121.905 174.415 C 124.314 175.781,135.485 182.223,138.185 183.802 C 139.670 184.671,141.425 185.691,142.086 186.068 C 144.513 187.454,146.311 188.492,147.265 189.058 C 148.270 189.655,159.011 195.842,171.193 202.842 C 174.989 205.023,180.593 208.261,183.646 210.038 C 200.816 220.029,200.137 219.685,201.209 218.947 C 201.534 218.722,205.919 216.174,210.953 213.283 C 215.986 210.393,221.977 206.931,224.264 205.590 C 226.551 204.248,228.467 203.151,228.521 203.151 C 228.958 203.151,239.161 196.952,239.685 196.368 L 240.360 195.615 240.360 173.034 C 240.360 155.422,240.443 150.348,240.735 149.978 C 240.941 149.717,244.216 147.716,248.012 145.531 C 251.808 143.346,257.614 139.998,260.915 138.091 C 264.216 136.184,267.929 134.055,269.167 133.359 C 274.644 130.279,279.220 127.489,279.440 127.095 C 279.757 126.529,279.614 126.434,271.268 121.622 C 263.023 116.870,248.153 108.269,238.560 102.705 C 231.981 98.889,227.018 96.030,210.053 86.284 C 205.514 83.677,201.534 81.358,201.209 81.132 C 200.270 80.479,199.930 80.598,195.649 83.082 M163.363 105.557 C 164.008 105.962,169.072 108.892,174.616 112.069 C 180.160 115.245,189.287 120.518,194.899 123.787 C 200.510 127.055,207.127 130.874,209.602 132.272 C 212.078 133.670,217.749 136.933,222.206 139.523 C 226.662 142.112,232.365 145.419,234.879 146.872 C 237.393 148.325,239.588 149.680,239.757 149.884 C 240.333 150.578,240.013 195.471,239.432 195.583 C 239.169 195.633,237.886 195.043,236.581 194.271 C 235.276 193.498,230.158 190.542,225.206 187.702 C 220.255 184.861,213.098 180.738,209.302 178.539 C 205.506 176.340,197.944 171.982,192.498 168.854 C 187.052 165.725,180.233 161.785,177.344 160.098 C 174.456 158.410,169.662 155.638,166.692 153.939 C 163.721 152.239,161.054 150.645,160.765 150.396 C 160.083 149.809,159.935 104.585,160.615 104.342 C 161.026 104.194,161.590 104.443,163.363 105.557 " stroke="none" fill="#ffffff" fill-rule="evenodd"></path><path id="path1" d="M160.615 104.342 C 159.935 104.585,160.083 149.809,160.765 150.396 C 161.054 150.645,163.721 152.239,166.692 153.939 C 169.662 155.638,174.456 158.410,177.344 160.098 C 180.233 161.785,187.052 165.725,192.498 168.854 C 197.944 171.982,205.506 176.340,209.302 178.539 C 213.098 180.738,220.255 184.861,225.206 187.702 C 230.158 190.542,235.276 193.498,236.581 194.271 C 237.886 195.043,239.169 195.633,239.432 195.583 C 240.013 195.471,240.333 150.578,239.757 149.884 C 239.588 149.680,237.393 148.325,234.879 146.872 C 232.365 145.419,226.662 142.112,222.206 139.523 C 217.749 136.933,212.078 133.670,209.602 132.272 C 207.127 130.874,200.510 127.055,194.899 123.787 C 189.287 120.518,180.160 115.245,174.616 112.069 C 169.072 108.892,164.008 105.962,163.363 105.557 C 161.590 104.443,161.026 104.194,160.615 104.342 " stroke="none" fill="#a8a8a8" fill-rule="evenodd"></path><path id="path2" d="M0.000 150.038 L 0.000 300.075 200.000 300.075 L 400.000 300.075 400.000 150.038 L 400.000 0.000 200.000 0.000 L 0.000 0.000 0.000 150.038 M201.209 81.132 C 201.534 81.358,205.514 83.677,210.053 86.284 C 227.018 96.030,231.981 98.889,238.560 102.705 C 248.153 108.269,263.023 116.870,271.268 121.622 C 279.614 126.434,279.757 126.529,279.440 127.095 C 279.220 127.489,274.644 130.279,269.167 133.359 C 267.929 134.055,264.216 136.184,260.915 138.091 C 257.614 139.998,251.808 143.346,248.012 145.531 C 244.216 147.716,240.941 149.717,240.735 149.978 C 240.443 150.348,240.360 155.422,240.360 173.034 L 240.360 195.615 239.685 196.368 C 239.161 196.952,228.958 203.151,228.521 203.151 C 228.467 203.151,226.551 204.248,224.264 205.590 C 221.977 206.931,215.986 210.393,210.953 213.283 C 205.919 216.174,201.534 218.722,201.209 218.947 C 200.137 219.685,200.816 220.029,183.646 210.038 C 180.593 208.261,174.989 205.023,171.193 202.842 C 159.011 195.842,148.270 189.655,147.265 189.058 C 146.311 188.492,144.513 187.454,142.086 186.068 C 141.425 185.691,139.670 184.671,138.185 183.802 C 135.485 182.223,124.314 175.781,121.905 174.415 C 119.844 173.246,119.937 173.149,127.082 169.029 C 130.218 167.221,137.172 163.202,142.536 160.097 C 147.899 156.992,152.896 154.112,153.638 153.696 C 154.381 153.280,156.103 152.278,157.464 151.469 L 159.940 149.997 159.944 127.437 C 159.946 115.028,160.028 104.577,160.126 104.211 C 160.302 103.555,161.545 102.772,171.943 96.772 C 174.006 95.581,179.272 92.543,183.646 90.020 C 188.020 87.497,193.421 84.375,195.649 83.082 C 199.930 80.598,200.270 80.479,201.209 81.132 " stroke="none" fill="#000000" fill-rule="evenodd"></path></g></svg>