<?xml version="1.0" encoding="UTF-8"?>
<svg width="449px" height="129px" viewBox="0 0 449 129" version="1.1" xmlns="http://www.w3.org/2000/svg" xmlns:xlink="http://www.w3.org/1999/xlink">
    <!-- Generator: Sketch 49.3 (51167) - http://www.bohemiancoding.com/sketch -->
    <title>PayEvo</title>
    <desc>Created with Sketch.</desc>
    <defs></defs>
    <g id="Page-1" stroke="none" stroke-width="1" fill="none" fill-rule="evenodd">
        <g id="PE-Style-Guide" transform="translate(-662.000000, -66.000000)" fill="#165585" fill-rule="nonzero">
            <g id="Group-9" transform="translate(662.000000, 66.000000)">
                <g id="PayEvo">
                    <path d="M222.380212,30.8315957 C228.495815,30.8315957 232.183501,27.8228909 233.786843,24.0678406 C234.840467,21.5489249 235.092421,18.7034831 234.542704,16.1145975 C234.061701,13.7122983 232.939362,11.6132019 231.290211,10.2837742 C229.709774,9.02431633 227.236047,8.60449704 223.937744,9.8173083 C217.409853,12.1729609 213.264069,18.7034831 211.340059,26.7033728 C207.194276,43.7993469 206.759083,74.4228312 233.328745,79.1341365 L233.672318,81 C224.350032,81 216.814326,77.2216265 211.15682,71.22754 C205.751268,65.5133331 202.109392,57.7699997 200.322811,49.5135538 C198.559135,41.420371 198.536231,32.7441058 200.391526,25.0474189 C202.956873,14.4119971 209.141191,5.47917572 219.310958,1.79409535 C227.62543,-1.21460951 236.443809,-0.305001065 241.230929,3.52001907 C244.575042,6.17887452 246.7281,10.0038947 247.575581,14.1554409 C248.400157,18.0970775 248.033679,24.0678406 246.384527,27.9628306 C243.361083,35.0531118 236.604143,46.2016461 222.380212,46.7380819 L222.380212,30.8315957 Z" id="Shape"></path>
                    <polygon id="Shape" points="226 127 226 100 242.470907 100 242.470907 102.326014 228.415426 102.326014 228.415426 112.268581 240.952639 112.268581 240.952639 114.548986 228.415426 114.548986 228.415426 124.719595 243 124.719595 243 127"></polygon>
                    <path d="M271.471374,100 L274,100 C271.924618,104.872375 269.825382,109.6979 267.75,114.5 C265.674618,119.3021 263.599237,124.15105 261.5,129 C259.400763,124.15105 257.325382,119.3021 255.25,114.5 C253.174618,109.6979 251.099237,104.872375 249,100 L251.528626,100 C253.150763,103.747981 254.749046,107.472536 256.347328,111.150242 C257.921756,114.827948 259.520038,118.552504 261.142176,122.300485 C261.189885,122.511309 261.26145,122.722132 261.30916,122.932956 C261.380725,123.120355 261.45229,123.331179 261.5,123.542003 C261.54771,123.331179 261.619275,123.120355 261.69084,122.932956 C261.762405,122.722132 261.810115,122.511309 261.857824,122.300485 C263.479962,118.552504 265.078244,114.827948 266.676527,111.150242 C268.250954,107.472536 269.849237,103.747981 271.471374,100 Z" id="1"></path>
                    <path d="M277,114.046205 C277,112.105611 277.346821,110.30363 278.086705,108.594059 C278.803468,106.884488 279.820809,105.405941 281.069364,104.135314 C282.34104,102.864686 283.820809,101.871287 285.508671,101.132013 C287.219653,100.392739 289.023121,100 290.942197,100 C292.884393,100 294.687861,100.392739 296.398844,101.132013 C298.109827,101.871287 299.589595,102.864686 300.861272,104.135314 C302.132948,105.405941 303.127168,106.884488 303.867052,108.594059 C304.630058,110.30363 305,112.105611 305,114.046205 C305,115.963696 304.630058,117.788779 303.867052,119.475248 C303.127168,121.161716 302.132948,122.640264 300.861272,123.910891 C299.589595,125.181518 298.109827,126.174917 296.398844,126.891089 C294.687861,127.630363 292.884393,128 290.942197,128 C289.023121,128 287.219653,127.630363 285.508671,126.891089 C283.820809,126.174917 282.34104,125.181518 281.069364,123.910891 C279.820809,122.640264 278.803468,121.161716 278.086705,119.475248 C277.346821,117.788779 277,115.963696 277,114.046205 Z M279.404624,114.046205 C279.404624,115.663366 279.705202,117.165017 280.306358,118.574257 C280.907514,119.983498 281.739884,121.207921 282.780347,122.270627 C283.820809,123.310231 285.046243,124.165017 286.456647,124.765677 C287.867052,125.389439 289.369942,125.689769 290.942197,125.689769 C292.537572,125.689769 294.040462,125.389439 295.450867,124.765677 C296.861272,124.165017 298.086705,123.310231 299.150289,122.270627 C300.190751,121.207921 301.046243,119.983498 301.647399,118.574257 C302.271676,117.165017 302.572254,115.663366 302.572254,114.046205 C302.572254,112.452145 302.271676,110.950495 301.647399,109.518152 C301.046243,108.108911 300.190751,106.861386 299.150289,105.79868 C298.086705,104.735974 296.861272,103.881188 295.473988,103.280528 C294.063584,102.656766 292.583815,102.356436 290.988439,102.356436 C289.393064,102.356436 287.890173,102.656766 286.50289,103.280528 C285.092486,103.881188 283.867052,104.735974 282.82659,105.79868 C281.763006,106.861386 280.953757,108.108911 280.32948,109.518152 C279.728324,110.950495 279.404624,112.452145 279.404624,114.046205 Z" id="2"></path>
                    <polygon id="3" points="311 127 311 100 313.415426 100 313.415426 124.719595 328 124.719595 328 127"></polygon>
                    <path d="M343.987879,128 C342.557576,128 341.224242,127.789649 339.987879,127.392321 C338.775758,126.994992 337.733333,126.410684 336.836364,125.639399 C335.963636,124.868114 335.260606,123.886477 334.751515,122.741235 C334.242424,121.572621 334,120.240401 334,118.744574 L334,100 L336.545455,100 L336.545455,118.627713 C336.545455,119.749583 336.715152,120.754591 337.078788,121.619366 C337.466667,122.48414 337.975758,123.232053 338.630303,123.816361 C339.284848,124.42404 340.060606,124.868114 340.981818,125.171953 C341.90303,125.499165 342.89697,125.662771 343.987879,125.662771 C345.054545,125.662771 346.048485,125.499165 346.969697,125.171953 C347.890909,124.868114 348.666667,124.42404 349.345455,123.816361 C350.024242,123.232053 350.533333,122.48414 350.89697,121.619366 C351.284848,120.754591 351.454545,119.749583 351.454545,118.627713 L351.454545,100 L354,100 L354,118.744574 C354,120.240401 353.757576,121.572621 353.248485,122.741235 C352.739394,123.886477 352.036364,124.868114 351.139394,125.639399 C350.218182,126.410684 349.175758,126.994992 347.963636,127.392321 C346.727273,127.789649 345.418182,128 343.987879,128 Z" id="4"></path>
                    <polygon id="5" points="378 100 378 102.326014 368.245726 102.326014 368.245726 127 365.801282 127 365.801282 102.326014 356 102.326014 356 100"></polygon>
                    <polygon id="6" points="382 100 385 100 385 127 382 127"></polygon>
                    <path d="M390,114.046205 C390,112.105611 390.346821,110.30363 391.086705,108.594059 C391.803468,106.884488 392.820809,105.405941 394.069364,104.135314 C395.34104,102.864686 396.820809,101.871287 398.508671,101.132013 C400.219653,100.392739 402.023121,100 403.942197,100 C405.884393,100 407.710983,100.392739 409.398844,101.132013 C411.109827,101.871287 412.612717,102.864686 413.861272,104.135314 C415.132948,105.405941 416.127168,106.884488 416.867052,108.594059 C417.630058,110.30363 418,112.105611 418,114.046205 C418,115.963696 417.630058,117.788779 416.867052,119.475248 C416.127168,121.161716 415.132948,122.640264 413.861272,123.910891 C412.612717,125.181518 411.109827,126.174917 409.398844,126.891089 C407.710983,127.630363 405.884393,128 403.942197,128 C402.023121,128 400.219653,127.630363 398.508671,126.891089 C396.820809,126.174917 395.34104,125.181518 394.069364,123.910891 C392.820809,122.640264 391.803468,121.161716 391.086705,119.475248 C390.346821,117.788779 390,115.963696 390,114.046205 Z M392.404624,114.046205 C392.404624,115.663366 392.705202,117.165017 393.306358,118.574257 C393.907514,119.983498 394.739884,121.207921 395.780347,122.270627 C396.820809,123.310231 398.046243,124.165017 399.456647,124.765677 C400.867052,125.389439 402.369942,125.689769 403.942197,125.689769 C405.537572,125.689769 407.040462,125.389439 408.450867,124.765677 C409.861272,124.165017 411.086705,123.310231 412.150289,122.270627 C413.190751,121.207921 414.046243,119.983498 414.647399,118.574257 C415.271676,117.165017 415.572254,115.663366 415.572254,114.046205 C415.572254,112.452145 415.271676,110.950495 414.647399,109.518152 C414.046243,108.108911 413.190751,106.861386 412.150289,105.79868 C411.086705,104.735974 409.861272,103.881188 408.473988,103.280528 C407.063584,102.656766 405.583815,102.356436 403.988439,102.356436 C402.393064,102.356436 400.890173,102.656766 399.50289,103.280528 C398.092486,103.881188 396.867052,104.735974 395.82659,105.79868 C394.763006,106.861386 393.953757,108.108911 393.32948,109.518152 C392.728324,110.950495 392.404624,112.452145 392.404624,114.046205 Z" id="7"></path>
                    <path d="M449,100.25387 L449,129 C445.491772,125.099071 442.006776,121.244582 438.521781,117.390093 C435.060019,113.558824 431.575024,109.704334 428.066796,105.803406 C427.927396,105.617647 427.811229,105.431889 427.695063,105.29257 C427.555663,105.130031 427.439497,104.944272 427.300097,104.781734 C427.346563,104.990712 427.346563,105.19969 427.369797,105.408669 C427.39303,105.617647 427.39303,105.826625 427.439497,106.035604 L427.439497,127.74613 L425,127.74613 L425,99 C428.508228,102.947368 431.993224,106.871517 435.454985,110.772446 C438.939981,114.673375 442.424976,118.620743 445.933204,122.568111 C446.072604,122.75387 446.188771,122.916409 446.304937,123.078947 C446.421104,123.241486 446.560503,123.404025 446.67667,123.589783 C446.653437,123.380805 446.630203,123.171827 446.630203,122.962848 C446.60697,122.75387 446.583737,122.544892 446.560503,122.335913 L446.560503,100.25387 L449,100.25387 Z" id="8"></path>
                    <path d="M0,127 L0,100 L16.716763,100 C16.7398844,100 16.8323699,100 17.017341,100 C17.1791908,100 17.4104046,100 17.7109827,100.045724 C18.265896,100.068586 19.0751445,100.251482 20.0924855,100.594412 C20.9942197,100.823031 22.0115607,101.211685 23.1213873,101.760373 C24.2312139,102.286198 25.2023121,103.040644 26.0578035,104.023709 C27.3526012,105.509738 28,107.361558 28,109.602032 C28,111.796782 27.3757225,113.648603 26.0809249,115.11177 C25.433526,115.820491 24.7861272,116.346317 24.1618497,116.757832 C23.5144509,117.169348 22.7976879,117.53514 22.0346821,117.832345 C20.6242775,118.381033 19.4219653,118.723963 18.3815029,118.815411 C17.849711,118.861135 17.4566474,118.883997 17.1791908,118.883997 C16.8786127,118.906859 16.716763,118.906859 16.6473988,118.906859 L3.79190751,118.906859 L3.79190751,127 L0,127 Z M16.6936416,115.020322 L16.8323699,115.020322 L17.3410405,115.020322 C17.5028902,115.020322 17.6647399,115.020322 17.7803468,115.020322 C17.9190751,115.020322 18.0809249,114.99746 18.2427746,114.928874 C18.4046243,114.88315 18.566474,114.860288 18.7283237,114.837426 C18.9132948,114.791702 19.0751445,114.745978 19.2369942,114.677392 C20,114.585944 20.7398844,114.357324 21.4797688,113.991533 C22.2196532,113.557155 22.7976879,113.122777 23.2138728,112.665538 C23.4913295,112.322608 23.7225434,111.911092 23.9306358,111.385267 C24.1156069,110.950889 24.2080925,110.356478 24.2080925,109.602032 C24.2080925,108.390347 23.9306358,107.407282 23.3294798,106.652837 C23.0289017,106.264183 22.6820809,105.921253 22.3352601,105.669771 C22.150289,105.486876 21.9653179,105.349704 21.7572254,105.235394 C21.5260116,105.121084 21.3179191,105.006774 21.0867052,104.869602 C20.0924855,104.412362 19.1676301,104.138019 18.3352601,104.023709 C17.433526,103.932261 16.9017341,103.886537 16.6936416,103.886537 L3.79190751,103.886537 L3.79190751,115.020322 L16.6936416,115.020322 Z" id="Shape"></path>
                    <polygon id="1" points="77.1716021 113.602879 76.4419134 114.288738 76.4419134 127 72.6051632 127 72.6051632 114.380186 59 100 64.3196659 100 74.4646925 110.790855 84.6097191 100 90 100"></polygon>
                    <polygon id="2" points="129 100 129 127 125.232979 127 125.232979 107.132938 110.627108 125.262489 95.9750156 107.132938 95.9750156 127 92 127 92 100 95.4896939 100 110.627108 119.021169 125.718301 100"></polygon>
                    <polygon id="3" points="158 127 140.879346 127 135 127 135 100 158 100 158 103.840813 138.833333 103.840813 138.833333 111.613887 158 111.613887 158 115.523285 138.833333 115.523285 138.833333 123.250635 158 123.250635"></polygon>
                    <polygon id="4" points="192 100 192 127 187.391777 127 165.793638 105.029636 165.793638 127 162 127 162 100 166.259116 100 188.183088 122.313294 188.183088 100"></polygon>
                    <polygon id="5" points="222 100 222 104.138019 212.107914 104.138019 211.298561 104.138019 211.298561 127 207.611511 127 207.611511 104.138019 206.779676 104.138019 197 104.138019 197 100 209.5 100 212.107914 100"></polygon>
                    <polygon id="6" points="27 127 43.8487337 98 61 127 56.5550992 127 43.9185489 105.557154 31.421629 127"></polygon>
                </g>
            </g>
        </g>
    </g>
</svg>