<?xml version="1.0" standalone="no"?>
<!DOCTYPE svg PUBLIC "-//W3C//DTD SVG 20010904//EN"
 "http://www.w3.org/TR/2001/REC-SVG-20010904/DTD/svg10.dtd">
<svg version="1.0" xmlns="http://www.w3.org/2000/svg"
 width="294.000000pt" height="80.000000pt" viewBox="0 0 294.000000 80.000000"
 preserveAspectRatio="xMidYMid meet">

<g transform="translate(0.000000,80.000000) scale(0.100000,-0.100000)"
fill="#000000" stroke="none">
<path d="M942 504 c-33 -23 -30 -75 9 -118 37 -43 30 -60 -22 -53 -36 5 -39 3
-39 -19 0 -28 32 -40 85 -30 71 14 83 82 23 136 -41 38 -33 65 16 56 26 -5 35
-3 40 10 4 10 1 21 -6 26 -21 13 -82 9 -106 -8z"/>
<path d="M1123 496 c-56 -48 -69 -167 -20 -201 41 -29 127 -16 127 19 0 20 -5
22 -47 22 l-48 -1 -3 37 c-4 43 20 94 47 103 10 3 30 1 44 -4 22 -9 28 -7 38
10 14 28 8 32 -54 37 -46 4 -57 1 -84 -22z"/>
<path d="M1316 499 c-10 -40 -46 -213 -46 -216 0 -2 13 -3 29 -3 28 0 30 3 37
45 8 57 25 58 44 3 13 -37 19 -43 47 -46 l32 -3 -21 51 -21 51 22 20 c25 24
28 80 5 100 -8 7 -39 14 -69 17 -50 4 -54 3 -59 -19z m81 -30 c12 -12 6 -39
-11 -51 -20 -14 -26 -8 -26 20 0 41 15 53 37 31z"/>
<path d="M1525 498 c-9 -42 -45 -212 -45 -215 0 -2 32 -3 70 -3 68 0 70 1 70
25 0 22 -4 25 -36 25 -31 0 -35 3 -32 23 2 17 11 23 38 25 59 6 72 52 14 52
-28 0 -35 3 -32 18 2 12 15 18 46 20 37 3 42 6 42 28 0 23 -3 24 -65 24 -59 0
-65 -2 -70 -22z"/>
<path d="M1705 498 c-9 -42 -45 -212 -45 -215 0 -2 32 -3 70 -3 68 0 70 1 70
25 0 22 -4 25 -36 25 -31 0 -35 3 -32 23 2 17 11 23 38 25 59 6 72 52 14 52
-28 0 -35 3 -32 18 2 12 15 18 46 20 37 3 42 6 42 28 0 23 -3 24 -65 24 -59 0
-65 -2 -70 -22z"/>
<path d="M1885 498 c-9 -42 -45 -212 -45 -215 0 -2 11 -3 24 -3 22 0 26 6 36
58 25 125 25 124 44 57 33 -115 30 -110 66 -110 l34 0 23 105 c28 131 28 130
-1 130 -22 0 -25 -6 -37 -72 -14 -84 -24 -101 -33 -61 -4 15 -14 52 -22 81
-15 50 -17 52 -50 52 -27 0 -35 -5 -39 -22z"/>
<path d="M2151 501 c-33 -33 -27 -67 22 -111 35 -33 40 -42 31 -57 -8 -13 -24
-18 -58 -18 -28 0 -46 -4 -46 -11 0 -30 77 -32 114 -3 38 30 34 64 -14 108
-44 40 -48 52 -24 76 12 11 25 14 51 9 28 -5 35 -4 31 7 -3 8 -22 15 -46 17
-31 2 -46 -2 -61 -17z"/>
<path d="M2286 505 c-4 -11 2 -15 24 -15 36 0 36 -2 11 -123 -17 -79 -17 -88
-3 -85 12 2 22 31 37 103 21 99 21 100 52 103 17 2 34 10 37 18 4 11 -9 14
-73 14 -61 0 -80 -3 -85 -15z"/>
<path d="M2462 408 c-12 -62 -22 -116 -22 -120 0 -5 27 -8 60 -8 47 0 60 3 60
15 0 11 -12 15 -45 15 -31 0 -43 4 -41 13 3 6 7 24 10 39 5 23 12 27 48 30 56
4 64 28 9 28 -42 0 -46 5 -35 48 5 18 13 22 50 22 32 0 44 4 44 15 0 12 -13
15 -58 15 l-57 0 -23 -112z"/>
<path d="M2622 408 c-26 -132 -26 -128 -8 -128 10 0 17 16 21 44 7 43 9 45 48
51 112 19 116 145 4 145 l-42 0 -23 -112z m112 66 c9 -25 7 -33 -14 -54 -26
-26 -74 -28 -66 -2 3 9 8 29 12 45 5 21 12 27 34 27 16 0 30 -7 34 -16z"/>
<path d="M2821 501 c-33 -33 -27 -67 22 -111 35 -33 40 -42 31 -57 -8 -13 -24
-18 -58 -18 -28 0 -46 -4 -46 -11 0 -30 77 -32 114 -3 38 30 34 64 -14 108
-44 40 -48 52 -24 76 12 11 25 14 51 9 28 -5 35 -4 31 7 -3 8 -22 15 -46 17
-31 2 -46 -2 -61 -17z"/>
</g>
</svg>
