<svg id="svg" version="1.1" width="400" height="400" viewBox="0 0 400 400" xmlns="http://www.w3.org/2000/svg" xmlns:xlink="http://www.w3.org/1999/xlink" ><g id="svgg"><path id="path0" d="M195.800 51.446 C 194.040 52.448,192.420 53.417,192.200 53.600 C 191.980 53.782,188.560 55.772,184.600 58.021 C 180.640 60.270,174.790 63.602,171.600 65.425 C 168.410 67.248,164.180 69.664,162.200 70.792 C 160.220 71.921,157.790 73.365,156.800 74.000 C 155.810 74.635,153.313 76.110,151.252 77.278 C 149.191 78.445,146.721 79.850,145.765 80.400 C 137.889 84.927,136.062 85.965,133.883 87.146 C 132.517 87.886,130.500 89.075,129.400 89.788 C 128.300 90.501,125.240 92.298,122.600 93.781 C 115.430 97.809,114.663 98.289,113.900 99.227 C 113.242 100.037,113.200 103.045,113.200 149.680 L 113.200 199.272 112.040 200.290 C 110.896 201.294,110.259 201.686,104.119 205.169 C 98.401 208.411,85.029 216.104,82.800 217.433 C 81.590 218.155,78.980 219.670,77.000 220.801 C 75.020 221.933,72.410 223.465,71.200 224.208 C 69.990 224.950,68.460 225.833,67.800 226.169 C 66.453 226.856,63.942 228.288,59.800 230.731 C 56.829 232.483,47.584 237.768,45.624 238.836 C 44.982 239.185,43.949 239.808,43.328 240.221 C 42.708 240.633,41.570 241.313,40.800 241.732 C 37.598 243.474,36.491 244.111,34.400 245.415 C 33.190 246.170,31.441 247.157,30.514 247.607 C 26.592 249.510,26.694 251.051,30.900 253.407 C 34.512 255.431,38.195 257.550,50.000 264.398 C 54.290 266.886,60.320 270.351,63.400 272.098 C 66.480 273.845,70.800 276.338,73.000 277.640 C 75.200 278.941,77.450 280.197,77.999 280.431 C 78.549 280.664,79.269 281.095,79.599 281.387 C 79.930 281.680,80.920 282.329,81.800 282.831 C 82.680 283.332,84.365 284.295,85.545 284.971 C 86.725 285.647,88.479 286.650,89.442 287.200 C 90.405 287.750,92.230 288.828,93.497 289.597 C 94.764 290.365,96.125 291.128,96.522 291.292 C 96.919 291.456,98.539 292.351,100.122 293.281 C 101.705 294.210,103.540 295.265,104.200 295.624 C 105.628 296.401,112.496 300.379,115.600 302.228 C 116.810 302.949,119.780 304.672,122.200 306.058 C 124.620 307.443,127.064 308.852,127.630 309.189 C 128.197 309.525,129.907 310.540,131.430 311.444 C 132.954 312.348,134.671 313.338,135.246 313.644 C 139.366 315.833,140.841 316.663,142.600 317.780 C 143.700 318.479,146.940 320.357,149.800 321.954 C 152.660 323.551,155.810 325.374,156.800 326.006 C 157.790 326.638,160.220 328.076,162.200 329.201 C 164.180 330.327,167.600 332.318,169.800 333.625 C 172.000 334.933,174.250 336.219,174.800 336.482 C 175.350 336.746,177.330 337.850,179.200 338.936 C 181.070 340.021,183.770 341.582,185.200 342.403 C 192.645 346.681,195.943 348.604,197.291 349.457 C 199.490 350.847,200.927 350.667,204.600 348.544 C 206.360 347.526,209.510 345.699,211.600 344.483 C 213.690 343.267,216.232 341.806,217.249 341.236 C 218.266 340.666,220.516 339.405,222.249 338.434 C 223.982 337.462,226.859 335.797,228.643 334.734 C 230.426 333.670,232.029 332.800,232.205 332.800 C 232.381 332.800,233.081 332.384,233.762 331.875 C 234.443 331.366,237.070 329.808,239.600 328.413 C 242.130 327.017,244.709 325.453,245.331 324.938 C 245.953 324.422,246.693 324.000,246.977 324.000 C 247.260 324.000,247.921 323.666,248.446 323.257 C 248.971 322.848,250.997 321.667,252.950 320.632 C 254.902 319.597,256.972 318.416,257.550 318.007 C 258.127 317.598,261.390 315.692,264.800 313.771 C 273.897 308.648,275.431 307.768,279.400 305.396 C 281.380 304.213,283.682 302.868,284.516 302.406 C 287.874 300.548,287.597 305.263,287.599 250.038 L 287.600 201.076 288.600 199.765 C 289.150 199.044,290.005 198.331,290.500 198.181 C 290.995 198.030,291.973 197.478,292.673 196.954 C 293.373 196.430,294.363 195.816,294.873 195.591 C 295.889 195.141,298.401 193.740,304.087 190.454 C 311.234 186.322,316.210 183.496,317.400 182.893 C 318.060 182.559,318.960 181.975,319.400 181.594 C 319.840 181.214,321.566 180.179,323.236 179.295 C 324.906 178.410,327.606 176.881,329.236 175.898 C 330.866 174.915,334.360 172.902,337.000 171.426 C 339.640 169.949,342.790 168.126,344.000 167.374 C 345.210 166.623,346.920 165.641,347.800 165.193 C 349.622 164.265,351.708 163.066,354.600 161.283 C 356.587 160.059,362.762 156.538,365.632 154.993 C 366.457 154.549,367.462 153.892,367.866 153.533 C 368.270 153.174,369.245 152.614,370.033 152.288 C 373.619 150.808,373.800 149.109,370.569 147.263 C 367.025 145.237,363.489 143.181,358.676 140.347 C 356.298 138.946,353.508 137.335,352.476 136.766 C 347.882 134.235,343.752 131.844,343.200 131.397 C 342.870 131.130,341.070 130.105,339.200 129.121 C 336.407 127.650,332.026 125.153,328.800 123.191 C 328.470 122.991,326.580 121.907,324.600 120.784 C 322.620 119.661,320.010 118.135,318.800 117.392 C 317.590 116.650,315.970 115.707,315.200 115.297 C 314.430 114.886,312.450 113.730,310.800 112.727 C 308.238 111.170,302.835 108.079,296.600 104.605 C 295.720 104.115,294.010 103.118,292.800 102.389 C 291.590 101.661,289.790 100.638,288.800 100.116 C 287.810 99.593,286.010 98.558,284.800 97.815 C 283.590 97.072,281.070 95.580,279.200 94.500 C 277.330 93.420,274.000 91.483,271.800 90.196 C 269.600 88.908,267.080 87.461,266.200 86.979 C 265.320 86.497,262.800 85.065,260.600 83.798 C 258.400 82.530,254.170 80.105,251.200 78.409 C 248.230 76.714,244.630 74.627,243.200 73.772 C 239.688 71.673,238.516 70.986,236.400 69.789 C 235.410 69.229,232.800 67.695,230.600 66.379 C 228.400 65.063,226.060 63.736,225.400 63.430 C 224.740 63.124,223.030 62.136,221.600 61.236 C 220.170 60.335,218.556 59.408,218.014 59.176 C 217.124 58.796,212.368 56.063,207.600 53.194 C 200.541 48.946,200.264 48.905,195.800 51.446 M117.540 101.564 C 119.320 102.787,122.921 105.029,124.400 105.835 C 125.170 106.254,128.140 107.965,131.000 109.637 C 133.860 111.308,138.413 113.919,141.117 115.438 C 153.307 122.285,156.753 124.252,157.838 124.985 C 158.477 125.417,159.540 126.067,160.200 126.430 C 160.860 126.792,163.233 128.149,165.473 129.445 C 167.712 130.740,171.582 132.947,174.073 134.349 C 176.563 135.750,179.410 137.386,180.400 137.984 C 185.929 141.323,189.849 143.600,190.069 143.600 C 190.207 143.600,191.463 144.313,192.860 145.185 C 194.257 146.057,196.300 147.290,197.400 147.925 C 198.500 148.560,201.200 150.127,203.400 151.407 C 207.330 153.695,216.539 158.954,227.200 164.999 C 230.170 166.683,233.770 168.761,235.200 169.616 C 236.630 170.472,239.240 172.001,241.000 173.013 C 242.760 174.026,246.000 175.916,248.200 177.213 C 250.400 178.510,252.650 179.794,253.200 180.066 C 253.750 180.338,254.737 180.930,255.393 181.380 C 256.049 181.831,259.739 183.978,263.593 186.152 C 272.718 191.299,277.684 194.154,280.400 195.817 C 281.610 196.558,283.371 197.555,284.313 198.032 C 285.255 198.509,286.196 199.219,286.404 199.608 C 287.096 200.900,286.976 298.396,286.282 299.090 C 285.631 299.740,284.141 299.128,280.221 296.600 C 279.109 295.883,275.950 293.995,273.200 292.403 C 270.450 290.812,267.210 288.923,266.000 288.206 C 264.790 287.488,262.630 286.270,261.200 285.499 C 259.770 284.728,256.800 283.057,254.600 281.784 C 252.400 280.512,248.980 278.544,247.000 277.411 C 245.020 276.277,242.802 275.001,242.070 274.575 C 241.339 274.149,239.089 272.839,237.070 271.663 C 235.052 270.488,231.960 268.667,230.200 267.617 C 228.440 266.567,225.470 264.869,223.600 263.845 C 221.730 262.820,219.480 261.540,218.600 261.000 C 217.720 260.460,216.101 259.538,215.002 258.952 C 213.903 258.366,210.843 256.592,208.202 255.008 C 205.561 253.425,201.510 251.079,199.200 249.795 C 196.890 248.512,194.730 247.241,194.400 246.971 C 193.755 246.444,191.798 245.303,188.600 243.589 C 187.500 243.000,184.800 241.475,182.600 240.201 C 175.499 236.088,173.927 235.200,173.744 235.200 C 173.646 235.200,171.368 233.882,168.683 232.271 C 165.997 230.660,162.360 228.558,160.600 227.600 C 158.840 226.642,156.860 225.463,156.200 224.981 C 155.540 224.498,152.930 222.969,150.400 221.582 C 147.870 220.195,144.855 218.456,143.699 217.717 C 142.543 216.979,140.653 215.869,139.499 215.251 C 138.345 214.633,135.600 213.081,133.400 211.802 C 131.200 210.523,127.061 208.143,124.203 206.512 C 121.344 204.882,118.734 203.319,118.403 203.040 C 118.071 202.760,117.209 202.298,116.486 202.012 C 113.332 200.763,113.600 205.545,113.600 150.426 C 113.600 111.779,113.706 101.254,114.099 100.861 C 114.691 100.269,116.065 100.550,117.540 101.564 " stroke="none" fill="#fa0808" fill-rule="evenodd"></path><path id="path1" d="M114.099 100.861 C 113.706 101.254,113.600 111.779,113.600 150.426 C 113.600 205.545,113.332 200.763,116.486 202.012 C 117.209 202.298,118.071 202.760,118.403 203.040 C 118.734 203.319,121.344 204.882,124.203 206.512 C 127.061 208.143,131.200 210.523,133.400 211.802 C 135.600 213.081,138.345 214.633,139.499 215.251 C 140.653 215.869,142.543 216.979,143.699 217.717 C 144.855 218.456,147.870 220.195,150.400 221.582 C 152.930 222.969,155.540 224.498,156.200 224.981 C 156.860 225.463,158.840 226.642,160.600 227.600 C 162.360 228.558,165.997 230.660,168.683 232.271 C 171.368 233.882,173.646 235.200,173.744 235.200 C 173.927 235.200,175.499 236.088,182.600 240.201 C 184.800 241.475,187.500 243.000,188.600 243.589 C 191.798 245.303,193.755 246.444,194.400 246.971 C 194.730 247.241,196.890 248.512,199.200 249.795 C 201.510 251.079,205.561 253.425,208.202 255.008 C 210.843 256.592,213.903 258.366,215.002 258.952 C 216.101 259.538,217.720 260.460,218.600 261.000 C 219.480 261.540,221.730 262.820,223.600 263.845 C 225.470 264.869,228.440 266.567,230.200 267.617 C 231.960 268.667,235.052 270.488,237.070 271.663 C 239.089 272.839,241.339 274.149,242.070 274.575 C 242.802 275.001,245.020 276.277,247.000 277.411 C 248.980 278.544,252.400 280.512,254.600 281.784 C 256.800 283.057,259.770 284.728,261.200 285.499 C 262.630 286.270,264.790 287.488,266.000 288.206 C 267.210 288.923,270.450 290.812,273.200 292.403 C 275.950 293.995,279.109 295.883,280.221 296.600 C 284.141 299.128,285.631 299.740,286.282 299.090 C 286.976 298.396,287.096 200.900,286.404 199.608 C 286.196 199.219,285.255 198.509,284.313 198.032 C 283.371 197.555,281.610 196.558,280.400 195.817 C 277.684 194.154,272.718 191.299,263.593 186.152 C 259.739 183.978,256.049 181.831,255.393 181.380 C 254.737 180.930,253.750 180.338,253.200 180.066 C 252.650 179.794,250.400 178.510,248.200 177.213 C 246.000 175.916,242.760 174.026,241.000 173.013 C 239.240 172.001,236.630 170.472,235.200 169.616 C 233.770 168.761,230.170 166.683,227.200 164.999 C 216.539 158.954,207.330 153.695,203.400 151.407 C 201.200 150.127,198.500 148.560,197.400 147.925 C 196.300 147.290,194.257 146.057,192.860 145.185 C 191.463 144.313,190.207 143.600,190.069 143.600 C 189.849 143.600,185.929 141.323,180.400 137.984 C 179.410 137.386,176.563 135.750,174.073 134.349 C 171.582 132.947,167.712 130.740,165.473 129.445 C 163.233 128.149,160.860 126.792,160.200 126.430 C 159.540 126.067,158.477 125.417,157.838 124.985 C 156.753 124.252,153.307 122.285,141.117 115.438 C 138.413 113.919,133.860 111.308,131.000 109.637 C 128.140 107.965,125.170 106.254,124.400 105.835 C 122.921 105.029,119.320 102.787,117.540 101.564 C 116.065 100.550,114.691 100.269,114.099 100.861 " stroke="none" fill="#3e1cff" fill-rule="evenodd"></path><path id="path2" d="M0.000 200.000 L 0.000 400.000 200.000 400.000 L 400.000 400.000 400.000 200.000 L 400.000 0.000 200.000 0.000 L 0.000 0.000 0.000 200.000 M203.551 50.856 C 204.788 51.546,206.610 52.598,207.600 53.194 C 212.368 56.063,217.124 58.796,218.014 59.176 C 218.556 59.408,220.170 60.335,221.600 61.236 C 223.030 62.136,224.740 63.124,225.400 63.430 C 226.060 63.736,228.400 65.063,230.600 66.379 C 232.800 67.695,235.410 69.229,236.400 69.789 C 238.516 70.986,239.688 71.673,243.200 73.772 C 244.630 74.627,248.230 76.714,251.200 78.409 C 254.170 80.105,258.400 82.530,260.600 83.798 C 262.800 85.065,265.320 86.497,266.200 86.979 C 267.080 87.461,269.600 88.908,271.800 90.196 C 274.000 91.483,277.330 93.420,279.200 94.500 C 281.070 95.580,283.590 97.072,284.800 97.815 C 286.010 98.558,287.810 99.593,288.800 100.116 C 289.790 100.638,291.590 101.661,292.800 102.389 C 294.010 103.118,295.720 104.115,296.600 104.605 C 302.835 108.079,308.238 111.170,310.800 112.727 C 312.450 113.730,314.430 114.886,315.200 115.297 C 315.970 115.707,317.590 116.650,318.800 117.392 C 320.010 118.135,322.620 119.661,324.600 120.784 C 326.580 121.907,328.470 122.991,328.800 123.191 C 332.026 125.153,336.407 127.650,339.200 129.121 C 341.070 130.105,342.870 131.130,343.200 131.397 C 343.752 131.844,347.882 134.235,352.476 136.766 C 353.508 137.335,356.298 138.946,358.676 140.347 C 363.489 143.181,367.025 145.237,370.569 147.263 C 373.800 149.109,373.619 150.808,370.033 152.288 C 369.245 152.614,368.270 153.174,367.866 153.533 C 367.462 153.892,366.457 154.549,365.632 154.993 C 362.762 156.538,356.587 160.059,354.600 161.283 C 351.708 163.066,349.622 164.265,347.800 165.193 C 346.920 165.641,345.210 166.623,344.000 167.374 C 342.790 168.126,339.640 169.949,337.000 171.426 C 334.360 172.902,330.866 174.915,329.236 175.898 C 327.606 176.881,324.906 178.410,323.236 179.295 C 321.566 180.179,319.840 181.214,319.400 181.594 C 318.960 181.975,318.060 182.559,317.400 182.893 C 316.210 183.496,311.234 186.322,304.087 190.454 C 298.401 193.740,295.889 195.141,294.873 195.591 C 294.363 195.816,293.373 196.430,292.673 196.954 C 291.973 197.478,290.995 198.030,290.500 198.181 C 290.005 198.331,289.150 199.044,288.600 199.765 L 287.600 201.076 287.599 250.038 C 287.597 305.263,287.874 300.548,284.516 302.406 C 283.682 302.868,281.380 304.213,279.400 305.396 C 275.431 307.768,273.897 308.648,264.800 313.771 C 261.390 315.692,258.127 317.598,257.550 318.007 C 256.972 318.416,254.902 319.597,252.950 320.632 C 250.997 321.667,248.971 322.848,248.446 323.257 C 247.921 323.666,247.260 324.000,246.977 324.000 C 246.693 324.000,245.953 324.422,245.331 324.938 C 244.709 325.453,242.130 327.017,239.600 328.413 C 237.070 329.808,234.443 331.366,233.762 331.875 C 233.081 332.384,232.381 332.800,232.205 332.800 C 232.029 332.800,230.426 333.670,228.643 334.734 C 226.859 335.797,223.982 337.462,222.249 338.434 C 220.516 339.405,218.266 340.666,217.249 341.236 C 216.232 341.806,213.690 343.267,211.600 344.483 C 209.510 345.699,206.360 347.526,204.600 348.544 C 200.927 350.667,199.490 350.847,197.291 349.457 C 195.943 348.604,192.645 346.681,185.200 342.403 C 183.770 341.582,181.070 340.021,179.200 338.936 C 177.330 337.850,175.350 336.746,174.800 336.482 C 174.250 336.219,172.000 334.933,169.800 333.625 C 167.600 332.318,164.180 330.327,162.200 329.201 C 160.220 328.076,157.790 326.638,156.800 326.006 C 155.810 325.374,152.660 323.551,149.800 321.954 C 146.940 320.357,143.700 318.479,142.600 317.780 C 140.841 316.663,139.366 315.833,135.246 313.644 C 134.671 313.338,132.954 312.348,131.430 311.444 C 129.907 310.540,128.197 309.525,127.630 309.189 C 127.064 308.852,124.620 307.443,122.200 306.058 C 119.780 304.672,116.810 302.949,115.600 302.228 C 112.496 300.379,105.628 296.401,104.200 295.624 C 103.540 295.265,101.705 294.210,100.122 293.281 C 98.539 292.351,96.919 291.456,96.522 291.292 C 96.125 291.128,94.764 290.365,93.497 289.597 C 92.230 288.828,90.405 287.750,89.442 287.200 C 88.479 286.650,86.725 285.647,85.545 284.971 C 84.365 284.295,82.680 283.332,81.800 282.831 C 80.920 282.329,79.930 281.680,79.599 281.387 C 79.269 281.095,78.549 280.664,77.999 280.431 C 77.450 280.197,75.200 278.941,73.000 277.640 C 70.800 276.338,66.480 273.845,63.400 272.098 C 60.320 270.351,54.290 266.886,50.000 264.398 C 38.195 257.550,34.512 255.431,30.900 253.407 C 26.694 251.051,26.592 249.510,30.514 247.607 C 31.441 247.157,33.190 246.170,34.400 245.415 C 36.491 244.111,37.598 243.474,40.800 241.732 C 41.570 241.313,42.708 240.633,43.328 240.221 C 43.949 239.808,44.982 239.185,45.624 238.836 C 47.584 237.768,56.829 232.483,59.800 230.731 C 63.942 228.288,66.453 226.856,67.800 226.169 C 68.460 225.833,69.990 224.950,71.200 224.208 C 72.410 223.465,75.020 221.933,77.000 220.801 C 78.980 219.670,81.590 218.155,82.800 217.433 C 85.029 216.104,98.401 208.411,104.119 205.169 C 110.259 201.686,110.896 201.294,112.040 200.290 L 113.200 199.272 113.200 149.680 C 113.200 103.045,113.242 100.037,113.900 99.227 C 114.663 98.289,115.430 97.809,122.600 93.781 C 125.240 92.298,128.300 90.501,129.400 89.788 C 130.500 89.075,132.517 87.886,133.883 87.146 C 136.062 85.965,137.889 84.927,145.765 80.400 C 146.721 79.850,149.191 78.445,151.252 77.278 C 153.313 76.110,155.810 74.635,156.800 74.000 C 157.790 73.365,160.220 71.921,162.200 70.792 C 164.180 69.664,168.410 67.248,171.600 65.425 C 174.790 63.602,180.640 60.270,184.600 58.021 C 188.560 55.772,191.980 53.782,192.200 53.600 C 193.627 52.417,199.198 49.622,200.151 49.612 C 200.785 49.606,202.315 50.165,203.551 50.856 " stroke="none" fill="#ffffff" fill-rule="evenodd"></path></g></svg>